{
  "source": "C:\\Users\\Peter\\Desktop\\stuff\\MIUN\\quantitative_research\\video_compression\\videos\\BVI-HD\\PaintingTilting_1920x1080_60fps.mp4",
  "output": "C:\\Users\\Peter\\Desktop\\stuff\\MIUN\\quantitative_research\\video_compression\\compressed_videos\\BVI-HD\\hevc\\12\\PaintingTilting_1920x1080_60fps_hevc.mp4",
  "codec": "hevc",
  "ok": "Input #0, mov,mp4,m4a,3gp,3g2,mj2, from 'C:\\Users\\Peter\\Desktop\\stuff\\MIUN\\quantitative_research\\video_compression\\videos\\BVI-HD\\PaintingTilting_1920x1080_60fps.mp4':\n  Metadata:\n    major_brand     : isom\n    minor_version   : 512\n    compatible_brands: isomiso2avc1mp41\n    encoder         : Lavf54.28.101\n  Duration: 00:00:05.00, start: 0.000000, bitrate: 667707 kb/s\n  Stream #0:0[0x1](und): Video: h264 (High 4:4:4 Predictive) (avc1 / 0x31637661), yuv420p(progressive), 1920x1080, 667702 kb/s, 60 fps, 60 tbr, 60 tbn (default)\n    Metadata:\n      handler_name    : VideoHandler\n      vendor_id       : [0][0][0][0]\n[out#0/mp4 @ 000002f6eba3ac80] Codec AVOption b:a (set bitrate (in bits/s)) has not been used for any stream. The most likely reason is either wrong type (e.g. a video option with no video streams) or that it is a private option of some decoder which was not actually used for any stream.\nStream mapping:\n  Stream #0:0 -> #0:0 (h264 (native) -> hevc (libx265))\nPress [q] to stop, [?] for help\n[libx265 @ 000002f6edda0380] Unknown option: \"aq-mode.\nx265 [info]: HEVC encoder version 4.1+190-8f11c33ac\nx265 [info]: build info [Windows][GCC 15.1.0][64 bit] 10bit\nx265 [info]: using cpu capabilities: MMX2 SSE2Fast LZCNT SSSE3 SSE4.2 AVX FMA3 BMI2 AVX2\nx265 [info]: Main 10 profile, Level-4.1 (Main tier)\nx265 [info]: Thread pool created using 12 threads\nx265 [info]: Slices                              : 1\nx265 [info]: frame threads / pool features       : 3 / wpp(17 rows)\nx265 [info]: Coding QT: max CU size, min CU size : 64 / 8\nx265 [info]: Residual QT: max TU size, max depth : 32 / 1 inter / 1 intra\nx265 [info]: ME / range / subpel / merge         : star / 57 / 3 / 3\nx265 [info]: Keyframe min / max / scenecut / bias  : 25 / 250 / 40 / 5.00 \nx265 [info]: Lookahead / bframes / badapt        : 25 / 4 / 2\nx265 [info]: b-pyramid / weightp / weightb       : 1 / 1 / 0\nx265 [info]: References / ref-limit  cu / depth  : 4 / on / on\nx265 [info]: AQ: mode / str / qg-size / cu-tree  : 2 / 1.0 / 32 / 1\nx265 [info]: Rate Control / qCompress            : ABR-12000 kbps / 0.60\nx265 [info]: VBV/HRD buffer / max-rate / init    : 12000 / 12000 / 0.750\nx265 [info]: tools: rect limit-modes rd=4 psy-rd=2.00 rdoq=2 psy-rdoq=1.00\nx265 [info]: tools: rskip mode=1 signhide tmvp strong-intra-smoothing lslices=4\nx265 [info]: tools: deblock sao dhdr10-info\nOutput #0, mp4, to 'C:\\Users\\Peter\\Desktop\\stuff\\MIUN\\quantitative_research\\video_compression\\compressed_videos\\BVI-HD\\hevc\\12\\PaintingTilting_1920x1080_60fps_hevc.mp4':\n  Metadata:\n    major_brand     : isom\n    minor_version   : 512\n    compatible_brands: isomiso2avc1mp41\n    encoder         : Lavf62.3.100\n  Stream #0:0(und): Video: hevc (hev1 / 0x31766568), yuv420p10le(tv, progressive), 1920x1080, q=2-31, 12000 kb/s, 60 fps, 15360 tbn (default)\n    Metadata:\n      encoder         : Lavc62.11.100 libx265\n      handler_name    : VideoHandler\n      vendor_id       : [0][0][0][0]\n    Side data:\n      cpb: bitrate max/min/avg: 12000000/0/12000000 buffer size: 12000000 vbv_delay: N/A\nframe=    0 fps=0.0 q=0.0 size=       0KiB time=N/A bitrate=N/A speed=N/A elapsed=0:00:00.50    \nframe=    0 fps=0.0 q=0.0 size=       0KiB time=N/A bitrate=N/A speed=N/A elapsed=0:00:01.07    \nframe=    0 fps=0.0 q=0.0 size=       0KiB time=N/A bitrate=N/A speed=N/A elapsed=0:00:01.58    \nframe=    0 fps=0.0 q=0.0 size=       0KiB time=N/A bitrate=N/A speed=N/A elapsed=0:00:02.10    \nframe=    0 fps=0.0 q=0.0 size=       0KiB time=N/A bitrate=N/A speed=N/A elapsed=0:00:02.62    \nframe=    0 fps=0.0 q=0.0 size=       0KiB time=N/A bitrate=N/A speed=N/A elapsed=0:00:03.12    \nframe=    0 fps=0.0 q=0.0 size=       0KiB time=N/A bitrate=N/A speed=N/A elapsed=0:00:03.65    \nframe=    0 fps=0.0 q=0.0 size=       0KiB time=N/A bitrate=N/A speed=N/A elapsed=0:00:04.15    \nframe=    0 fps=0.0 q=0.0 size=       0KiB time=N/A bitrate=N/A speed=N/A elapsed=0:00:04.68    \nframe=    0 fps=0.0 q=0.0 size=       0KiB time=N/A bitrate=N/A speed=N/A elapsed=0:00:05.20    \nframe=    0 fps=0.0 q=0.0 size=       0KiB time=N/A bitrate=N/A speed=N/A elapsed=0:00:05.70    \nframe=    0 fps=0.0 q=0.0 size=       0KiB time=N/A bitrate=N/A speed=N/A elapsed=0:00:06.23    \nframe=    0 fps=0.0 q=0.0 size=       0KiB time=N/A bitrate=N/A speed=N/A elapsed=0:00:06.75    \nframe=    0 fps=0.0 q=0.0 size=       0KiB time=N/A bitrate=N/A speed=N/A elapsed=0:00:07.27    \nframe=    1 fps=0.1 q=30.4 size=       0KiB time=-00:00:00.01 bitrate=N/A speed=N/A elapsed=0:00:07.79    \nframe=    3 fps=0.4 q=42.0 size=       0KiB time=00:00:00.01 bitrate=  21.1kbits/s speed=0.00201x elapsed=0:00:08.30    \nframe=    4 fps=0.5 q=39.0 size=       0KiB time=00:00:00.03 bitrate=  10.6kbits/s speed=0.00378x elapsed=0:00:08.82    \nframe=    5 fps=0.5 q=38.0 size=       0KiB time=00:00:00.05 bitrate=   7.0kbits/s speed=0.00536x elapsed=0:00:09.33    \nframe=    6 fps=0.6 q=38.0 size=       0KiB time=00:00:00.06 bitrate=   5.3kbits/s speed=0.00677x elapsed=0:00:09.85    \nframe=    7 fps=0.7 q=31.9 size=       0KiB time=00:00:00.08 bitrate=   4.2kbits/s speed=0.00803x elapsed=0:00:10.37    \nframe=    7 fps=0.6 q=31.9 size=       0KiB time=00:00:00.08 bitrate=   4.2kbits/s speed=0.00766x elapsed=0:00:10.88    \nframe=    7 fps=0.6 q=31.9 size=       0KiB time=00:00:00.08 bitrate=   4.2kbits/s speed=0.00731x elapsed=0:00:11.40    \nframe=    8 fps=0.7 q=33.2 size=       0KiB time=00:00:00.10 bitrate=   3.5kbits/s speed=0.0084x elapsed=0:00:11.90    \nframe=    8 fps=0.6 q=33.2 size=       0KiB time=00:00:00.10 bitrate=   3.5kbits/s speed=0.00804x elapsed=0:00:12.43    \nframe=    9 fps=0.7 q=33.4 size=       0KiB time=00:00:00.11 bitrate=   3.0kbits/s speed=0.00902x elapsed=0:00:12.94    \nframe=   10 fps=0.7 q=27.9 size=       0KiB time=00:00:00.13 bitrate=   2.6kbits/s speed=0.0099x elapsed=0:00:13.46    \nframe=   11 fps=0.8 q=29.3 size=     256KiB time=00:00:00.15 bitrate=13983.4kbits/s speed=0.0107x elapsed=0:00:13.98    \nframe=   11 fps=0.8 q=29.3 size=     256KiB time=00:00:00.15 bitrate=13983.4kbits/s speed=0.0104x elapsed=0:00:14.49    \nframe=   11 fps=0.7 q=29.3 size=     256KiB time=00:00:00.15 bitrate=13983.4kbits/s speed=0.00999x elapsed=0:00:15.01    \nframe=   12 fps=0.8 q=30.1 size=     256KiB time=00:00:00.16 bitrate=12585.0kbits/s speed=0.0107x elapsed=0:00:15.52    \nframe=   13 fps=0.8 q=31.7 size=     256KiB time=00:00:00.18 bitrate=11441.0kbits/s speed=0.0114x elapsed=0:00:16.03    \nframe=   14 fps=0.8 q=25.4 size=     256KiB time=00:00:00.20 bitrate=10487.5kbits/s speed=0.0121x elapsed=0:00:16.56    \nframe=   15 fps=0.9 q=31.6 size=     256KiB time=00:00:00.21 bitrate=9680.8kbits/s speed=0.0127x elapsed=0:00:17.07    \nframe=   15 fps=0.9 q=31.6 size=     256KiB time=00:00:00.21 bitrate=9680.8kbits/s speed=0.0123x elapsed=0:00:17.59    \nframe=   15 fps=0.8 q=31.6 size=     256KiB time=00:00:00.21 bitrate=9680.8kbits/s speed=0.012x elapsed=0:00:18.09    \nframe=   16 fps=0.9 q=32.3 size=     256KiB time=00:00:00.23 bitrate=8989.3kbits/s speed=0.0125x elapsed=0:00:18.61    \nframe=   16 fps=0.8 q=32.3 size=     256KiB time=00:00:00.23 bitrate=8989.3kbits/s speed=0.0122x elapsed=0:00:19.14    \nframe=   17 fps=0.9 q=33.1 size=     256KiB time=00:00:00.25 bitrate=8390.0kbits/s speed=0.0127x elapsed=0:00:19.65    \nframe=   19 fps=0.9 q=27.3 size=     256KiB time=00:00:00.28 bitrate=7403.0kbits/s speed=0.014x elapsed=0:00:20.17    \nframe=   20 fps=1.0 q=33.1 size=     256KiB time=00:00:00.30 bitrate=6991.7kbits/s speed=0.0145x elapsed=0:00:20.67    \nframe=   20 fps=0.9 q=33.1 size=     256KiB time=00:00:00.30 bitrate=6991.7kbits/s speed=0.0142x elapsed=0:00:21.19    \nframe=   20 fps=0.9 q=33.1 size=     256KiB time=00:00:00.30 bitrate=6991.7kbits/s speed=0.0138x elapsed=0:00:21.70    \nframe=   21 fps=0.9 q=32.0 size=     256KiB time=00:00:00.31 bitrate=6623.7kbits/s speed=0.0142x elapsed=0:00:22.22    \nframe=   22 fps=1.0 q=32.3 size=     256KiB time=00:00:00.33 bitrate=6292.5kbits/s speed=0.0147x elapsed=0:00:22.75    \nframe=   22 fps=0.9 q=32.3 size=     256KiB time=00:00:00.33 bitrate=6292.5kbits/s speed=0.0143x elapsed=0:00:23.25    \nframe=   24 fps=1.0 q=30.7 size=     512KiB time=00:00:00.36 bitrate=11440.0kbits/s speed=0.0154x elapsed=0:00:23.77    \nframe=   24 fps=1.0 q=30.7 size=     512KiB time=00:00:00.36 bitrate=11440.0kbits/s speed=0.0151x elapsed=0:00:24.28    \nframe=   24 fps=1.0 q=30.7 size=     512KiB time=00:00:00.36 bitrate=11440.0kbits/s speed=0.0148x elapsed=0:00:24.80    \nframe=   25 fps=1.0 q=33.0 size=     512KiB time=00:00:00.38 bitrate=10942.6kbits/s speed=0.0151x elapsed=0:00:25.32    \nframe=   26 fps=1.0 q=31.5 size=     512KiB time=00:00:00.40 bitrate=10486.6kbits/s speed=0.0155x elapsed=0:00:25.83    \nframe=   27 fps=1.0 q=25.2 size=     512KiB time=00:00:00.41 bitrate=10067.2kbits/s speed=0.0158x elapsed=0:00:26.36    \nframe=   28 fps=1.0 q=28.4 size=     512KiB time=00:00:00.43 bitrate=9680.0kbits/s speed=0.0161x elapsed=0:00:26.86    \nframe=   29 fps=1.1 q=30.6 size=     512KiB time=00:00:00.45 bitrate=9321.5kbits/s speed=0.0164x elapsed=0:00:27.38    \nframe=   29 fps=1.0 q=30.6 size=     512KiB time=00:00:00.45 bitrate=9321.5kbits/s speed=0.0161x elapsed=0:00:27.89    \nframe=   29 fps=1.0 q=30.6 size=     512KiB time=00:00:00.45 bitrate=9321.5kbits/s speed=0.0158x elapsed=0:00:28.41    \nframe=   30 fps=1.0 q=30.4 size=     512KiB time=00:00:00.46 bitrate=8988.5kbits/s speed=0.0161x elapsed=0:00:28.93    \nframe=   30 fps=1.0 q=30.4 size=     512KiB time=00:00:00.46 bitrate=8988.5kbits/s speed=0.0159x elapsed=0:00:29.44    \nframe=   32 fps=1.1 q=24.8 size=     512KiB time=00:00:00.50 bitrate=8389.3kbits/s speed=0.0167x elapsed=0:00:29.96    \nframe=   33 fps=1.1 q=29.1 size=     512KiB time=00:00:00.51 bitrate=8118.7kbits/s speed=0.017x elapsed=0:00:30.47    \nframe=   34 fps=1.1 q=31.4 size=     512KiB time=00:00:00.53 bitrate=7865.0kbits/s speed=0.0172x elapsed=0:00:30.99    \nframe=   34 fps=1.1 q=31.4 size=     512KiB time=00:00:00.53 bitrate=7865.0kbits/s speed=0.0169x elapsed=0:00:31.51    \nframe=   34 fps=1.1 q=31.4 size=     512KiB time=00:00:00.53 bitrate=7865.0kbits/s speed=0.0167x elapsed=0:00:32.02    \nframe=   35 fps=1.1 q=32.1 size=     512KiB time=00:00:00.55 bitrate=7626.6kbits/s speed=0.0169x elapsed=0:00:32.54    \nframe=   35 fps=1.1 q=32.1 size=     512KiB time=00:00:00.55 bitrate=7626.6kbits/s speed=0.0166x elapsed=0:00:33.05    \nframe=   36 fps=1.1 q=31.6 size=     512KiB time=00:00:00.56 bitrate=7402.3kbits/s speed=0.0169x elapsed=0:00:33.57    \nframe=   37 fps=1.1 q=24.9 size=     512KiB time=00:00:00.58 bitrate=7190.8kbits/s speed=0.0171x elapsed=0:00:34.09    \nframe=   37 fps=1.1 q=24.9 size=     512KiB time=00:00:00.58 bitrate=7190.8kbits/s speed=0.0169x elapsed=0:00:34.60    \nframe=   37 fps=1.1 q=24.9 size=     512KiB time=00:00:00.58 bitrate=7190.8kbits/s speed=0.0166x elapsed=0:00:35.12    \nframe=   37 fps=1.0 q=24.9 size=     512KiB time=00:00:00.58 bitrate=7190.8kbits/s speed=0.0164x elapsed=0:00:35.63    \nframe=   38 fps=1.1 q=28.8 size=     768KiB time=00:00:00.60 bitrate=10486.3kbits/s speed=0.0166x elapsed=0:00:36.15    \nframe=   39 fps=1.1 q=31.7 size=     768KiB time=00:00:00.61 bitrate=10202.9kbits/s speed=0.0168x elapsed=0:00:36.67    \nframe=   41 fps=1.1 q=28.9 size=     768KiB time=00:00:00.65 bitrate=9679.7kbits/s speed=0.0175x elapsed=0:00:37.19    \nframe=   42 fps=1.1 q=32.4 size=     768KiB time=00:00:00.66 bitrate=9437.7kbits/s speed=0.0177x elapsed=0:00:37.71    \nframe=   42 fps=1.1 q=32.4 size=     768KiB time=00:00:00.66 bitrate=9437.7kbits/s speed=0.0174x elapsed=0:00:38.22    \nframe=   42 fps=1.1 q=32.4 size=     768KiB time=00:00:00.66 bitrate=9437.7kbits/s speed=0.0172x elapsed=0:00:38.74    \nframe=   43 fps=1.1 q=31.2 size=     768KiB time=00:00:00.68 bitrate=9207.5kbits/s speed=0.0174x elapsed=0:00:39.27    \nframe=   44 fps=1.1 q=31.8 size=     768KiB time=00:00:00.70 bitrate=8988.3kbits/s speed=0.0176x elapsed=0:00:39.78    \nframe=   46 fps=1.1 q=29.0 size=    1024KiB time=00:00:00.73 bitrate=11439.5kbits/s speed=0.0182x elapsed=0:00:40.30    \nframe=   47 fps=1.2 q=31.2 size=    1024KiB time=00:00:00.75 bitrate=11185.3kbits/s speed=0.0184x elapsed=0:00:40.81    \nframe=   47 fps=1.1 q=31.2 size=    1024KiB time=00:00:00.75 bitrate=11185.3kbits/s speed=0.0181x elapsed=0:00:41.34    \nframe=   47 fps=1.1 q=31.2 size=    1024KiB time=00:00:00.75 bitrate=11185.3kbits/s speed=0.0179x elapsed=0:00:41.87    \nframe=   48 fps=1.1 q=31.2 size=    1024KiB time=00:00:00.76 bitrate=10942.1kbits/s speed=0.0181x elapsed=0:00:42.38    \nframe=   49 fps=1.1 q=30.5 size=    1024KiB time=00:00:00.78 bitrate=10709.3kbits/s speed=0.0183x elapsed=0:00:42.89    \nframe=   50 fps=1.2 q=24.5 size=    1024KiB time=00:00:00.80 bitrate=10486.2kbits/s speed=0.0184x elapsed=0:00:43.41    \nframe=   51 fps=1.2 q=29.4 size=    1024KiB time=00:00:00.81 bitrate=10272.2kbits/s speed=0.0186x elapsed=0:00:43.93    \nframe=   51 fps=1.1 q=29.4 size=    1024KiB time=00:00:00.81 bitrate=10272.2kbits/s speed=0.0184x elapsed=0:00:44.46    \nframe=   52 fps=1.2 q=31.0 size=    1024KiB time=00:00:00.83 bitrate=10066.8kbits/s speed=0.0185x elapsed=0:00:44.98    \nframe=   52 fps=1.1 q=31.0 size=    1024KiB time=00:00:00.83 bitrate=10066.8kbits/s speed=0.0183x elapsed=0:00:45.48    \nframe=   53 fps=1.2 q=30.7 size=    1024KiB time=00:00:00.85 bitrate=9869.4kbits/s speed=0.0185x elapsed=0:00:46.00    \nframe=   54 fps=1.2 q=24.8 size=    1024KiB time=00:00:00.86 bitrate=9679.6kbits/s speed=0.0186x elapsed=0:00:46.52    \nframe=   55 fps=1.2 q=27.8 size=    1024KiB time=00:00:00.88 bitrate=9496.9kbits/s speed=0.0188x elapsed=0:00:47.05    \nframe=   56 fps=1.2 q=30.3 size=    1024KiB time=00:00:00.90 bitrate=9321.1kbits/s speed=0.0189x elapsed=0:00:47.57    \nframe=   56 fps=1.2 q=30.3 size=    1024KiB time=00:00:00.90 bitrate=9321.1kbits/s speed=0.0187x elapsed=0:00:48.09    \nframe=   56 fps=1.2 q=30.3 size=    1024KiB time=00:00:00.90 bitrate=9321.1kbits/s speed=0.0185x elapsed=0:00:48.59    \nframe=   57 fps=1.2 q=30.4 size=    1024KiB time=00:00:00.91 bitrate=9151.6kbits/s speed=0.0187x elapsed=0:00:49.11    \nframe=   57 fps=1.1 q=30.4 size=    1024KiB time=00:00:00.91 bitrate=9151.6kbits/s speed=0.0185x elapsed=0:00:49.64    \nframe=   58 fps=1.2 q=30.2 size=    1024KiB time=00:00:00.93 bitrate=8988.2kbits/s speed=0.0186x elapsed=0:00:50.14    \nframe=   59 fps=1.2 q=24.6 size=    1024KiB time=00:00:00.95 bitrate=8830.5kbits/s speed=0.0188x elapsed=0:00:50.66    \nframe=   60 fps=1.2 q=24.8 size=    1280KiB time=00:00:00.96 bitrate=10847.7kbits/s speed=0.0189x elapsed=0:00:51.18    \nframe=   60 fps=1.2 q=24.8 size=    1280KiB time=00:00:00.96 bitrate=10847.7kbits/s speed=0.0187x elapsed=0:00:51.70    \nframe=   61 fps=1.2 q=30.1 size=    1280KiB time=00:00:00.98 bitrate=10663.8kbits/s speed=0.0188x elapsed=0:00:52.22    \nframe=   61 fps=1.2 q=30.1 size=    1280KiB time=00:00:00.98 bitrate=10663.8kbits/s speed=0.0186x elapsed=0:00:52.74    \nframe=   61 fps=1.1 q=30.1 size=    1280KiB time=00:00:00.98 bitrate=10663.8kbits/s speed=0.0185x elapsed=0:00:53.28    \nframe=   61 fps=1.1 q=30.1 size=    1280KiB time=00:00:00.98 bitrate=10663.8kbits/s speed=0.0183x elapsed=0:00:53.80    \nframe=   61 fps=1.1 q=30.1 size=    1280KiB time=00:00:00.98 bitrate=10663.8kbits/s speed=0.0181x elapsed=0:00:54.34    \nframe=   61 fps=1.1 q=30.1 size=    1280KiB time=00:00:00.98 bitrate=10663.8kbits/s speed=0.0179x elapsed=0:00:54.88    \nframe=   62 fps=1.1 q=30.2 size=    1280KiB time=00:00:01.00 bitrate=10486.1kbits/s speed=0.018x elapsed=0:00:55.41    \nframe=   62 fps=1.1 q=30.2 size=    1280KiB time=00:00:01.00 bitrate=10486.1kbits/s speed=0.0179x elapsed=0:00:55.97    \nframe=   63 fps=1.1 q=31.2 size=    1280KiB time=00:00:01.01 bitrate=10314.2kbits/s speed=0.018x elapsed=0:00:56.50    \nframe=   63 fps=1.1 q=31.2 size=    1280KiB time=00:00:01.01 bitrate=10314.2kbits/s speed=0.0178x elapsed=0:00:57.05    \nframe=   63 fps=1.1 q=31.2 size=    1280KiB time=00:00:01.01 bitrate=10314.2kbits/s speed=0.0176x elapsed=0:00:57.60    \nframe=   63 fps=1.1 q=31.2 size=    1280KiB time=00:00:01.01 bitrate=10314.2kbits/s speed=0.0175x elapsed=0:00:58.14    \nframe=   64 fps=1.1 q=25.0 size=    1280KiB time=00:00:01.03 bitrate=10147.9kbits/s speed=0.0176x elapsed=0:00:58.67    \nframe=   65 fps=1.1 q=29.9 size=    1280KiB time=00:00:01.05 bitrate=9986.8kbits/s speed=0.0177x elapsed=0:00:59.19    \nframe=   65 fps=1.1 q=29.9 size=    1280KiB time=00:00:01.05 bitrate=9986.8kbits/s speed=0.0176x elapsed=0:00:59.72    \nframe=   66 fps=1.1 q=32.1 size=    1280KiB time=00:00:01.06 bitrate=9830.7kbits/s speed=0.0177x elapsed=0:01:00.25    \nframe=   66 fps=1.1 q=32.1 size=    1280KiB time=00:00:01.06 bitrate=9830.7kbits/s speed=0.0176x elapsed=0:01:00.77    \nframe=   66 fps=1.1 q=32.1 size=    1280KiB time=00:00:01.06 bitrate=9830.7kbits/s speed=0.0174x elapsed=0:01:01.30    \nframe=   66 fps=1.1 q=32.1 size=    1280KiB time=00:00:01.06 bitrate=9830.7kbits/s speed=0.0173x elapsed=0:01:01.82    \nframe=   66 fps=1.1 q=32.1 size=    1280KiB time=00:00:01.06 bitrate=9830.7kbits/s speed=0.0171x elapsed=0:01:02.35    \nframe=   66 fps=1.0 q=32.1 size=    1280KiB time=00:00:01.06 bitrate=9830.7kbits/s speed=0.017x elapsed=0:01:02.87    \nframe=   66 fps=1.0 q=32.1 size=    1280KiB time=00:00:01.06 bitrate=9830.7kbits/s speed=0.0168x elapsed=0:01:03.41    \nframe=   66 fps=1.0 q=32.1 size=    1280KiB time=00:00:01.06 bitrate=9830.7kbits/s speed=0.0167x elapsed=0:01:03.96    \nframe=   66 fps=1.0 q=32.1 size=    1280KiB time=00:00:01.06 bitrate=9830.7kbits/s speed=0.0165x elapsed=0:01:04.49    \nframe=   66 fps=1.0 q=32.1 size=    1280KiB time=00:00:01.06 bitrate=9830.7kbits/s speed=0.0164x elapsed=0:01:05.02    \nframe=   67 fps=1.0 q=32.1 size=    1280KiB time=00:00:01.08 bitrate=9679.5kbits/s speed=0.0165x elapsed=0:01:05.54    \nframe=   68 fps=1.0 q=31.5 size=    1280KiB time=00:00:01.10 bitrate=9532.8kbits/s speed=0.0166x elapsed=0:01:06.07    \nframe=   68 fps=1.0 q=31.5 size=    1280KiB time=00:00:01.10 bitrate=9532.8kbits/s speed=0.0165x elapsed=0:01:06.63    \nframe=   68 fps=1.0 q=31.5 size=    1280KiB time=00:00:01.10 bitrate=9532.8kbits/s speed=0.0164x elapsed=0:01:07.18    \nframe=   69 fps=1.0 q=25.0 size=    1280KiB time=00:00:01.11 bitrate=9390.5kbits/s speed=0.0165x elapsed=0:01:07.71    \nframe=   69 fps=1.0 q=25.0 size=    1280KiB time=00:00:01.11 bitrate=9390.5kbits/s speed=0.0164x elapsed=0:01:08.24    \nframe=   70 fps=1.0 q=30.6 size=    1536KiB time=00:00:01.13 bitrate=11102.9kbits/s speed=0.0165x elapsed=0:01:08.77    \nframe=   71 fps=1.0 q=31.5 size=    1536KiB time=00:00:01.15 bitrate=10942.0kbits/s speed=0.0166x elapsed=0:01:09.29    \nframe=   71 fps=1.0 q=31.5 size=    1536KiB time=00:00:01.15 bitrate=10942.0kbits/s speed=0.0165x elapsed=0:01:09.85    \nframe=   71 fps=1.0 q=31.5 size=    1536KiB time=00:00:01.15 bitrate=10942.0kbits/s speed=0.0163x elapsed=0:01:10.38    \nframe=   71 fps=1.0 q=31.5 size=    1536KiB time=00:00:01.15 bitrate=10942.0kbits/s speed=0.0162x elapsed=0:01:10.92    \nframe=   71 fps=1.0 q=31.5 size=    1536KiB time=00:00:01.15 bitrate=10942.0kbits/s speed=0.0161x elapsed=0:01:11.45    \nframe=   71 fps=1.0 q=31.5 size=    1536KiB time=00:00:01.15 bitrate=10942.0kbits/s speed=0.016x elapsed=0:01:11.99    \nframe=   71 fps=1.0 q=31.5 size=    1536KiB time=00:00:01.15 bitrate=10942.0kbits/s speed=0.0159x elapsed=0:01:12.52    \nframe=   71 fps=1.0 q=31.5 size=    1536KiB time=00:00:01.15 bitrate=10942.0kbits/s speed=0.0157x elapsed=0:01:13.07    \nframe=   71 fps=1.0 q=31.5 size=    1536KiB time=00:00:01.15 bitrate=10942.0kbits/s speed=0.0156x elapsed=0:01:13.58    \nframe=   72 fps=1.0 q=31.3 size=    1536KiB time=00:00:01.16 bitrate=10785.7kbits/s speed=0.0157x elapsed=0:01:14.12    \nframe=   72 fps=1.0 q=31.3 size=    1536KiB time=00:00:01.16 bitrate=10785.7kbits/s speed=0.0156x elapsed=0:01:14.69    \nframe=   72 fps=1.0 q=31.3 size=    1536KiB time=00:00:01.16 bitrate=10785.7kbits/s speed=0.0155x elapsed=0:01:15.23    \nframe=   72 fps=1.0 q=31.3 size=    1536KiB time=00:00:01.16 bitrate=10785.7kbits/s speed=0.0154x elapsed=0:01:15.76    \nframe=   72 fps=0.9 q=31.3 size=    1536KiB time=00:00:01.16 bitrate=10785.7kbits/s speed=0.0153x elapsed=0:01:16.29    \nframe=   72 fps=0.9 q=31.3 size=    1536KiB time=00:00:01.16 bitrate=10785.7kbits/s speed=0.0152x elapsed=0:01:16.86    \nframe=   72 fps=0.9 q=31.3 size=    1536KiB time=00:00:01.16 bitrate=10785.7kbits/s speed=0.0151x elapsed=0:01:17.39    \nframe=   73 fps=0.9 q=31.4 size=    1536KiB time=00:00:01.18 bitrate=10633.7kbits/s speed=0.0152x elapsed=0:01:17.93    \nframe=   73 fps=0.9 q=31.4 size=    1536KiB time=00:00:01.18 bitrate=10633.7kbits/s speed=0.0151x elapsed=0:01:18.47    \nframe=   75 fps=0.9 q=30.4 size=    1536KiB time=00:00:01.21 bitrate=10342.4kbits/s speed=0.0154x elapsed=0:01:19.02    \nframe=   75 fps=0.9 q=30.4 size=    1536KiB time=00:00:01.21 bitrate=10342.4kbits/s speed=0.0153x elapsed=0:01:19.58    \nframe=   75 fps=0.9 q=30.4 size=    1536KiB time=00:00:01.21 bitrate=10342.4kbits/s speed=0.0152x elapsed=0:01:20.10    \nframe=   76 fps=0.9 q=31.3 size=    1536KiB time=00:00:01.23 bitrate=10202.6kbits/s speed=0.0153x elapsed=0:01:20.64    \nframe=   77 fps=0.9 q=31.4 size=    1536KiB time=00:00:01.25 bitrate=10066.6kbits/s speed=0.0154x elapsed=0:01:21.20    \nframe=   77 fps=0.9 q=31.4 size=    1536KiB time=00:00:01.25 bitrate=10066.6kbits/s speed=0.0153x elapsed=0:01:21.72    \nframe=   77 fps=0.9 q=31.4 size=    1536KiB time=00:00:01.25 bitrate=10066.6kbits/s speed=0.0152x elapsed=0:01:22.26    \nframe=   77 fps=0.9 q=31.4 size=    1536KiB time=00:00:01.25 bitrate=10066.6kbits/s speed=0.0151x elapsed=0:01:22.82    \nframe=   77 fps=0.9 q=31.4 size=    1536KiB time=00:00:01.25 bitrate=10066.6kbits/s speed=0.015x elapsed=0:01:23.37    \nframe=   78 fps=0.9 q=31.2 size=    1536KiB time=00:00:01.26 bitrate=9934.2kbits/s speed=0.0151x elapsed=0:01:23.91    \nframe=   78 fps=0.9 q=31.2 size=    1536KiB time=00:00:01.26 bitrate=9934.2kbits/s speed=0.015x elapsed=0:01:24.47    \nframe=   78 fps=0.9 q=31.2 size=    1536KiB time=00:00:01.26 bitrate=9934.2kbits/s speed=0.0149x elapsed=0:01:25.00    \nframe=   78 fps=0.9 q=31.2 size=    1536KiB time=00:00:01.26 bitrate=9934.2kbits/s speed=0.0148x elapsed=0:01:25.52    \nframe=   79 fps=0.9 q=24.4 size=    1536KiB time=00:00:01.28 bitrate=9805.1kbits/s speed=0.0149x elapsed=0:01:26.07    \nframe=   79 fps=0.9 q=24.4 size=    1536KiB time=00:00:01.28 bitrate=9805.1kbits/s speed=0.0148x elapsed=0:01:26.61    \nframe=   79 fps=0.9 q=24.4 size=    1536KiB time=00:00:01.28 bitrate=9805.1kbits/s speed=0.0147x elapsed=0:01:27.16    \nframe=   79 fps=0.9 q=24.4 size=    1536KiB time=00:00:01.28 bitrate=9805.1kbits/s speed=0.0146x elapsed=0:01:27.70    \nframe=   79 fps=0.9 q=24.4 size=    1536KiB time=00:00:01.28 bitrate=9805.1kbits/s speed=0.0145x elapsed=0:01:28.25    \nframe=   79 fps=0.9 q=24.4 size=    1536KiB time=00:00:01.28 bitrate=9805.1kbits/s speed=0.0145x elapsed=0:01:28.81    \nframe=   80 fps=0.9 q=28.2 size=    1536KiB time=00:00:01.30 bitrate=9679.4kbits/s speed=0.0145x elapsed=0:01:29.35    \nframe=   80 fps=0.9 q=28.2 size=    1536KiB time=00:00:01.30 bitrate=9679.4kbits/s speed=0.0145x elapsed=0:01:29.90    \nframe=   81 fps=0.9 q=31.2 size=    1536KiB time=00:00:01.31 bitrate=9556.9kbits/s speed=0.0146x elapsed=0:01:30.42    \nframe=   81 fps=0.9 q=31.2 size=    1536KiB time=00:00:01.31 bitrate=9556.9kbits/s speed=0.0145x elapsed=0:01:30.97    \nframe=   81 fps=0.9 q=31.2 size=    1536KiB time=00:00:01.31 bitrate=9556.9kbits/s speed=0.0144x elapsed=0:01:31.48    \nframe=   81 fps=0.9 q=31.2 size=    1536KiB time=00:00:01.31 bitrate=9556.9kbits/s speed=0.0143x elapsed=0:01:32.01    \nframe=   81 fps=0.9 q=31.2 size=    1536KiB time=00:00:01.31 bitrate=9556.9kbits/s speed=0.0142x elapsed=0:01:32.54    \nframe=   82 fps=0.9 q=24.6 size=    1536KiB time=00:00:01.33 bitrate=9437.5kbits/s speed=0.0143x elapsed=0:01:33.09    \nframe=   82 fps=0.9 q=24.6 size=    1536KiB time=00:00:01.33 bitrate=9437.5kbits/s speed=0.0142x elapsed=0:01:33.63    \nframe=   82 fps=0.9 q=24.6 size=    1536KiB time=00:00:01.33 bitrate=9437.5kbits/s speed=0.0142x elapsed=0:01:34.16    \nframe=   83 fps=0.9 q=29.2 size=    1792KiB time=00:00:01.35 bitrate=10874.4kbits/s speed=0.0143x elapsed=0:01:34.67    \nframe=   83 fps=0.9 q=29.2 size=    1792KiB time=00:00:01.35 bitrate=10874.4kbits/s speed=0.0142x elapsed=0:01:35.20    \nframe=   83 fps=0.9 q=29.2 size=    1792KiB time=00:00:01.35 bitrate=10874.4kbits/s speed=0.0141x elapsed=0:01:35.72    \nframe=   83 fps=0.9 q=29.2 size=    1792KiB time=00:00:01.35 bitrate=10874.4kbits/s speed=0.014x elapsed=0:01:36.24    \nframe=   83 fps=0.9 q=29.2 size=    1792KiB time=00:00:01.35 bitrate=10874.4kbits/s speed=0.0139x elapsed=0:01:36.81    \nframe=   83 fps=0.9 q=29.2 size=    1792KiB time=00:00:01.35 bitrate=10874.4kbits/s speed=0.0139x elapsed=0:01:37.36    \nframe=   83 fps=0.8 q=29.2 size=    1792KiB time=00:00:01.35 bitrate=10874.4kbits/s speed=0.0138x elapsed=0:01:37.89    \nframe=   83 fps=0.8 q=29.2 size=    1792KiB time=00:00:01.35 bitrate=10874.4kbits/s speed=0.0137x elapsed=0:01:38.44    \nframe=   83 fps=0.8 q=29.2 size=    1792KiB time=00:00:01.35 bitrate=10874.4kbits/s speed=0.0136x elapsed=0:01:38.96    \nframe=   84 fps=0.8 q=31.3 size=    1792KiB time=00:00:01.36 bitrate=10741.8kbits/s speed=0.0137x elapsed=0:01:39.53    \nframe=   84 fps=0.8 q=31.3 size=    1792KiB time=00:00:01.36 bitrate=10741.8kbits/s speed=0.0137x elapsed=0:01:40.06    \nframe=   85 fps=0.8 q=31.3 size=    1792KiB time=00:00:01.38 bitrate=10612.4kbits/s speed=0.0137x elapsed=0:01:40.60    \nframe=   85 fps=0.8 q=31.3 size=    1792KiB time=00:00:01.38 bitrate=10612.4kbits/s speed=0.0137x elapsed=0:01:41.14    \nframe=   85 fps=0.8 q=31.3 size=    1792KiB time=00:00:01.38 bitrate=10612.4kbits/s speed=0.0136x elapsed=0:01:41.66    \nframe=   85 fps=0.8 q=31.3 size=    1792KiB time=00:00:01.38 bitrate=10612.4kbits/s speed=0.0135x elapsed=0:01:42.19    \nframe=   85 fps=0.8 q=31.3 size=    1792KiB time=00:00:01.38 bitrate=10612.4kbits/s speed=0.0135x elapsed=0:01:42.72    \nframe=   86 fps=0.8 q=24.7 size=    1792KiB time=00:00:01.40 bitrate=10486.0kbits/s speed=0.0136x elapsed=0:01:43.23    \nframe=   86 fps=0.8 q=24.7 size=    1792KiB time=00:00:01.40 bitrate=10486.0kbits/s speed=0.0135x elapsed=0:01:43.79    \nframe=   86 fps=0.8 q=24.7 size=    1792KiB time=00:00:01.40 bitrate=10486.0kbits/s speed=0.0134x elapsed=0:01:44.32    \nframe=   86 fps=0.8 q=24.7 size=    1792KiB time=00:00:01.40 bitrate=10486.0kbits/s speed=0.0134x elapsed=0:01:44.85    \nframe=   86 fps=0.8 q=24.7 size=    1792KiB time=00:00:01.40 bitrate=10486.0kbits/s speed=0.0133x elapsed=0:01:45.37    \nframe=   86 fps=0.8 q=24.7 size=    1792KiB time=00:00:01.40 bitrate=10486.0kbits/s speed=0.0132x elapsed=0:01:45.91    \nframe=   87 fps=0.8 q=30.6 size=    1792KiB time=00:00:01.41 bitrate=10362.6kbits/s speed=0.0133x elapsed=0:01:46.46    \nframe=   87 fps=0.8 q=30.6 size=    1792KiB time=00:00:01.41 bitrate=10362.6kbits/s speed=0.0132x elapsed=0:01:47.01    \nframe=   87 fps=0.8 q=30.6 size=    1792KiB time=00:00:01.41 bitrate=10362.6kbits/s speed=0.0132x elapsed=0:01:47.56    \nframe=   88 fps=0.8 q=31.3 size=    1792KiB time=00:00:01.43 bitrate=10242.2kbits/s speed=0.0133x elapsed=0:01:48.08    \nframe=   88 fps=0.8 q=31.3 size=    1792KiB time=00:00:01.43 bitrate=10242.2kbits/s speed=0.0132x elapsed=0:01:48.60    \nframe=   88 fps=0.8 q=31.3 size=    1792KiB time=00:00:01.43 bitrate=10242.2kbits/s speed=0.0131x elapsed=0:01:49.13    \nframe=   89 fps=0.8 q=24.6 size=    1792KiB time=00:00:01.45 bitrate=10124.4kbits/s speed=0.0132x elapsed=0:01:49.67    \nframe=   89 fps=0.8 q=24.6 size=    1792KiB time=00:00:01.45 bitrate=10124.4kbits/s speed=0.0132x elapsed=0:01:50.21    \nframe=   91 fps=0.8 q=31.3 size=    2048KiB time=00:00:01.48 bitrate=11310.7kbits/s speed=0.0134x elapsed=0:01:50.72    \nframe=   91 fps=0.8 q=31.3 size=    2048KiB time=00:00:01.48 bitrate=11310.7kbits/s speed=0.0133x elapsed=0:01:51.25    \nframe=   91 fps=0.8 q=31.3 size=    2048KiB time=00:00:01.48 bitrate=11310.7kbits/s speed=0.0133x elapsed=0:01:51.81    \nframe=   91 fps=0.8 q=31.3 size=    2048KiB time=00:00:01.48 bitrate=11310.7kbits/s speed=0.0132x elapsed=0:01:52.33    \nframe=   91 fps=0.8 q=31.3 size=    2048KiB time=00:00:01.48 bitrate=11310.7kbits/s speed=0.0131x elapsed=0:01:52.86    \nframe=   91 fps=0.8 q=31.3 size=    2048KiB time=00:00:01.48 bitrate=11310.7kbits/s speed=0.0131x elapsed=0:01:53.42    \nframe=   92 fps=0.8 q=30.3 size=    2048KiB time=00:00:01.50 bitrate=11185.0kbits/s speed=0.0132x elapsed=0:01:53.96    \nframe=   92 fps=0.8 q=30.3 size=    2048KiB time=00:00:01.50 bitrate=11185.0kbits/s speed=0.0131x elapsed=0:01:54.50    \nframe=   93 fps=0.8 q=30.7 size=    2048KiB time=00:00:01.51 bitrate=11062.1kbits/s speed=0.0132x elapsed=0:01:55.02    \nframe=   93 fps=0.8 q=30.7 size=    2048KiB time=00:00:01.51 bitrate=11062.1kbits/s speed=0.0131x elapsed=0:01:55.54    \nframe=   93 fps=0.8 q=30.7 size=    2048KiB time=00:00:01.51 bitrate=11062.1kbits/s speed=0.0131x elapsed=0:01:56.05    \nframe=   93 fps=0.8 q=30.7 size=    2048KiB time=00:00:01.51 bitrate=11062.1kbits/s speed=0.013x elapsed=0:01:56.58    \nframe=   93 fps=0.8 q=30.7 size=    2048KiB time=00:00:01.51 bitrate=11062.1kbits/s speed=0.0129x elapsed=0:01:57.12    \nframe=   95 fps=0.8 q=29.7 size=    2048KiB time=00:00:01.55 bitrate=10824.2kbits/s speed=0.0132x elapsed=0:01:57.65    \nframe=   95 fps=0.8 q=29.7 size=    2048KiB time=00:00:01.55 bitrate=10824.2kbits/s speed=0.0131x elapsed=0:01:58.17    \nframe=   95 fps=0.8 q=29.7 size=    2048KiB time=00:00:01.55 bitrate=10824.2kbits/s speed=0.0131x elapsed=0:01:58.69    \nframe=   96 fps=0.8 q=30.4 size=    2048KiB time=00:00:01.56 bitrate=10709.1kbits/s speed=0.0131x elapsed=0:01:59.23    \nframe=   96 fps=0.8 q=30.4 size=    2048KiB time=00:00:01.56 bitrate=10709.1kbits/s speed=0.0131x elapsed=0:01:59.77    \nframe=   96 fps=0.8 q=30.4 size=    2048KiB time=00:00:01.56 bitrate=10709.1kbits/s speed=0.013x elapsed=0:02:00.30    \nframe=   96 fps=0.8 q=30.4 size=    2048KiB time=00:00:01.56 bitrate=10709.1kbits/s speed=0.013x elapsed=0:02:00.84    \nframe=   96 fps=0.8 q=30.4 size=    2048KiB time=00:00:01.56 bitrate=10709.1kbits/s speed=0.0129x elapsed=0:02:01.36    \nframe=   96 fps=0.8 q=30.4 size=    2048KiB time=00:00:01.56 bitrate=10709.1kbits/s speed=0.0129x elapsed=0:02:01.90    \nframe=   96 fps=0.8 q=30.4 size=    2048KiB time=00:00:01.56 bitrate=10709.1kbits/s speed=0.0128x elapsed=0:02:02.45    \nframe=   96 fps=0.8 q=30.4 size=    2048KiB time=00:00:01.56 bitrate=10709.1kbits/s speed=0.0127x elapsed=0:02:02.97    \nframe=   96 fps=0.8 q=30.4 size=    2048KiB time=00:00:01.56 bitrate=10709.1kbits/s speed=0.0127x elapsed=0:02:03.49    \nframe=   96 fps=0.8 q=30.4 size=    2048KiB time=00:00:01.56 bitrate=10709.1kbits/s speed=0.0126x elapsed=0:02:04.00    \nframe=   96 fps=0.8 q=30.4 size=    2048KiB time=00:00:01.56 bitrate=10709.1kbits/s speed=0.0126x elapsed=0:02:04.52    \nframe=   97 fps=0.8 q=30.2 size=    2048KiB time=00:00:01.58 bitrate=10596.4kbits/s speed=0.0127x elapsed=0:02:05.04    \nframe=  100 fps=0.8 q=28.2 size=    2048KiB time=00:00:01.63 bitrate=10272.0kbits/s speed=0.013x elapsed=0:02:05.55    \nframe=  100 fps=0.8 q=28.2 size=    2048KiB time=00:00:01.63 bitrate=10272.0kbits/s speed=0.013x elapsed=0:02:06.07    \nframe=  101 fps=0.8 q=30.3 size=    2048KiB time=00:00:01.65 bitrate=10168.2kbits/s speed=0.013x elapsed=0:02:06.60    \nframe=  102 fps=0.8 q=30.4 size=    2048KiB time=00:00:01.66 bitrate=10066.5kbits/s speed=0.0131x elapsed=0:02:07.12    \nframe=  103 fps=0.8 q=24.1 size=    2048KiB time=00:00:01.68 bitrate=9966.9kbits/s speed=0.0132x elapsed=0:02:07.64    \nframe=  103 fps=0.8 q=24.1 size=    2048KiB time=00:00:01.68 bitrate=9966.9kbits/s speed=0.0131x elapsed=0:02:08.17    \nframe=  104 fps=0.8 q=28.2 size=    2304KiB time=00:00:01.70 bitrate=11102.8kbits/s speed=0.0132x elapsed=0:02:08.68    \nframe=  105 fps=0.8 q=30.5 size=    2304KiB time=00:00:01.71 bitrate=10995.0kbits/s speed=0.0133x elapsed=0:02:09.20    \nframe=  105 fps=0.8 q=30.5 size=    2304KiB time=00:00:01.71 bitrate=10995.0kbits/s speed=0.0132x elapsed=0:02:09.72    \nframe=  105 fps=0.8 q=30.5 size=    2304KiB time=00:00:01.71 bitrate=10995.0kbits/s speed=0.0132x elapsed=0:02:10.29    \nframe=  105 fps=0.8 q=30.5 size=    2304KiB time=00:00:01.71 bitrate=10995.0kbits/s speed=0.0131x elapsed=0:02:10.88    \nframe=  105 fps=0.8 q=30.5 size=    2304KiB time=00:00:01.71 bitrate=10995.0kbits/s speed=0.0131x elapsed=0:02:11.44    \nframe=  105 fps=0.8 q=30.5 size=    2304KiB time=00:00:01.71 bitrate=10995.0kbits/s speed=0.013x elapsed=0:02:12.01    \nframe=  105 fps=0.8 q=30.5 size=    2304KiB time=00:00:01.71 bitrate=10995.0kbits/s speed=0.0129x elapsed=0:02:12.59    \nframe=  105 fps=0.8 q=30.5 size=    2304KiB time=00:00:01.71 bitrate=10995.0kbits/s speed=0.0129x elapsed=0:02:13.09    \nframe=  107 fps=0.8 q=29.1 size=    2304KiB time=00:00:01.75 bitrate=10785.6kbits/s speed=0.0131x elapsed=0:02:13.62    \nframe=  107 fps=0.8 q=29.1 size=    2304KiB time=00:00:01.75 bitrate=10785.6kbits/s speed=0.013x elapsed=0:02:14.13    \nframe=  107 fps=0.8 q=29.1 size=    2304KiB time=00:00:01.75 bitrate=10785.6kbits/s speed=0.013x elapsed=0:02:14.68    \nframe=  107 fps=0.8 q=29.1 size=    2304KiB time=00:00:01.75 bitrate=10785.6kbits/s speed=0.0129x elapsed=0:02:15.25    \nframe=  107 fps=0.8 q=29.1 size=    2304KiB time=00:00:01.75 bitrate=10785.6kbits/s speed=0.0129x elapsed=0:02:15.77    \nframe=  108 fps=0.8 q=31.2 size=    2304KiB time=00:00:01.76 bitrate=10683.8kbits/s speed=0.013x elapsed=0:02:16.30    \nframe=  108 fps=0.8 q=31.2 size=    2304KiB time=00:00:01.76 bitrate=10683.8kbits/s speed=0.0129x elapsed=0:02:16.89    \nframe=  108 fps=0.8 q=31.2 size=    2304KiB time=00:00:01.76 bitrate=10683.8kbits/s speed=0.0129x elapsed=0:02:17.41    \nframe=  108 fps=0.8 q=31.2 size=    2304KiB time=00:00:01.76 bitrate=10683.8kbits/s speed=0.0128x elapsed=0:02:17.95    \nframe=  108 fps=0.8 q=31.2 size=    2304KiB time=00:00:01.76 bitrate=10683.8kbits/s speed=0.0128x elapsed=0:02:18.45    \nframe=  108 fps=0.8 q=31.2 size=    2304KiB time=00:00:01.76 bitrate=10683.8kbits/s speed=0.0127x elapsed=0:02:18.98    \nframe=  109 fps=0.8 q=30.5 size=    2304KiB time=00:00:01.78 bitrate=10584.0kbits/s speed=0.0128x elapsed=0:02:19.51    \nframe=  110 fps=0.8 q=24.2 size=    2304KiB time=00:00:01.80 bitrate=10486.0kbits/s speed=0.0129x elapsed=0:02:20.04    \nframe=  111 fps=0.8 q=29.7 size=    2560KiB time=00:00:01.81 bitrate=11544.1kbits/s speed=0.0129x elapsed=0:02:20.58    \nframe=  112 fps=0.8 q=29.6 size=    2560KiB time=00:00:01.83 bitrate=11439.2kbits/s speed=0.013x elapsed=0:02:21.10    \nframe=  112 fps=0.8 q=29.6 size=    2560KiB time=00:00:01.83 bitrate=11439.2kbits/s speed=0.0129x elapsed=0:02:21.63    \nframe=  112 fps=0.8 q=29.6 size=    2560KiB time=00:00:01.83 bitrate=11439.2kbits/s speed=0.0129x elapsed=0:02:22.15    \nframe=  112 fps=0.8 q=29.6 size=    2560KiB time=00:00:01.83 bitrate=11439.2kbits/s speed=0.0129x elapsed=0:02:22.66    \nframe=  113 fps=0.8 q=30.0 size=    2560KiB time=00:00:01.85 bitrate=11336.1kbits/s speed=0.0129x elapsed=0:02:23.24    \nframe=  113 fps=0.8 q=30.0 size=    2560KiB time=00:00:01.85 bitrate=11336.1kbits/s speed=0.0129x elapsed=0:02:23.80    \nframe=  113 fps=0.8 q=30.0 size=    2560KiB time=00:00:01.85 bitrate=11336.1kbits/s speed=0.0128x elapsed=0:02:24.35    \nframe=  113 fps=0.8 q=30.0 size=    2560KiB time=00:00:01.85 bitrate=11336.1kbits/s speed=0.0128x elapsed=0:02:24.88    \nframe=  113 fps=0.8 q=30.0 size=    2560KiB time=00:00:01.85 bitrate=11336.1kbits/s speed=0.0127x elapsed=0:02:25.39    \nframe=  113 fps=0.8 q=30.0 size=    2560KiB time=00:00:01.85 bitrate=11336.1kbits/s speed=0.0127x elapsed=0:02:25.95    \nframe=  113 fps=0.8 q=30.0 size=    2560KiB time=00:00:01.85 bitrate=11336.1kbits/s speed=0.0126x elapsed=0:02:26.49    \nframe=  113 fps=0.8 q=30.0 size=    2560KiB time=00:00:01.85 bitrate=11336.1kbits/s speed=0.0126x elapsed=0:02:27.00    \nframe=  114 fps=0.8 q=29.7 size=    2560KiB time=00:00:01.86 bitrate=11234.9kbits/s speed=0.0127x elapsed=0:02:27.55    \nframe=  114 fps=0.8 q=29.7 size=    2560KiB time=00:00:01.86 bitrate=11234.9kbits/s speed=0.0126x elapsed=0:02:28.08    \nframe=  114 fps=0.8 q=29.7 size=    2560KiB time=00:00:01.86 bitrate=11234.9kbits/s speed=0.0126x elapsed=0:02:28.65    \nframe=  114 fps=0.8 q=29.7 size=    2560KiB time=00:00:01.86 bitrate=11234.9kbits/s speed=0.0125x elapsed=0:02:29.19    \nframe=  116 fps=0.8 q=24.5 size=    2560KiB time=00:00:01.90 bitrate=11037.8kbits/s speed=0.0127x elapsed=0:02:29.71    \nframe=  116 fps=0.8 q=24.5 size=    2560KiB time=00:00:01.90 bitrate=11037.8kbits/s speed=0.0126x elapsed=0:02:30.25    \nframe=  117 fps=0.8 q=31.3 size=    2560KiB time=00:00:01.91 bitrate=10941.8kbits/s speed=0.0127x elapsed=0:02:30.79    \nframe=  117 fps=0.8 q=31.3 size=    2560KiB time=00:00:01.91 bitrate=10941.8kbits/s speed=0.0127x elapsed=0:02:31.32    \nframe=  117 fps=0.8 q=31.3 size=    2560KiB time=00:00:01.91 bitrate=10941.8kbits/s speed=0.0126x elapsed=0:02:31.83    \nframe=  117 fps=0.8 q=31.3 size=    2560KiB time=00:00:01.91 bitrate=10941.8kbits/s speed=0.0126x elapsed=0:02:32.35    \nframe=  117 fps=0.8 q=31.3 size=    2560KiB time=00:00:01.91 bitrate=10941.8kbits/s speed=0.0125x elapsed=0:02:32.89    \nframe=  117 fps=0.8 q=31.3 size=    2560KiB time=00:00:01.91 bitrate=10941.8kbits/s speed=0.0125x elapsed=0:02:33.43    \nframe=  118 fps=0.8 q=30.4 size=    2560KiB time=00:00:01.93 bitrate=10847.5kbits/s speed=0.0126x elapsed=0:02:33.94    \nframe=  118 fps=0.8 q=30.4 size=    2560KiB time=00:00:01.93 bitrate=10847.5kbits/s speed=0.0125x elapsed=0:02:34.47    \nframe=  118 fps=0.8 q=30.4 size=    2560KiB time=00:00:01.93 bitrate=10847.5kbits/s speed=0.0125x elapsed=0:02:34.99    \nframe=  120 fps=0.8 q=24.5 size=    2560KiB time=00:00:01.96 bitrate=10663.7kbits/s speed=0.0126x elapsed=0:02:35.51    \nframe=  120 fps=0.8 q=24.5 size=    2560KiB time=00:00:01.96 bitrate=10663.7kbits/s speed=0.0126x elapsed=0:02:36.05    \nframe=  122 fps=0.8 q=31.5 size=    2816KiB time=00:00:02.00 bitrate=11534.5kbits/s speed=0.0128x elapsed=0:02:36.57    \nframe=  123 fps=0.8 q=31.3 size=    2816KiB time=00:00:02.01 bitrate=11439.2kbits/s speed=0.0128x elapsed=0:02:37.08    \nframe=  123 fps=0.8 q=31.3 size=    2816KiB time=00:00:02.01 bitrate=11439.2kbits/s speed=0.0128x elapsed=0:02:37.60    \nframe=  123 fps=0.8 q=31.3 size=    2816KiB time=00:00:02.01 bitrate=11439.2kbits/s speed=0.0128x elapsed=0:02:38.11    \nframe=  124 fps=0.8 q=32.3 size=    2816KiB time=00:00:02.03 bitrate=11345.4kbits/s speed=0.0128x elapsed=0:02:38.65    \nframe=  124 fps=0.8 q=32.3 size=    2816KiB time=00:00:02.03 bitrate=11345.4kbits/s speed=0.0128x elapsed=0:02:39.17    \nframe=  125 fps=0.8 q=24.6 size=    2816KiB time=00:00:02.05 bitrate=11253.2kbits/s speed=0.0128x elapsed=0:02:39.71    \nframe=  126 fps=0.8 q=26.4 size=    2816KiB time=00:00:02.06 bitrate=11162.4kbits/s speed=0.0129x elapsed=0:02:40.23    \nframe=  127 fps=0.8 q=31.2 size=    2816KiB time=00:00:02.08 bitrate=11073.1kbits/s speed=0.013x elapsed=0:02:40.75    \nframe=  127 fps=0.8 q=31.2 size=    2816KiB time=00:00:02.08 bitrate=11073.1kbits/s speed=0.0129x elapsed=0:02:41.28    \nframe=  127 fps=0.8 q=31.2 size=    2816KiB time=00:00:02.08 bitrate=11073.1kbits/s speed=0.0129x elapsed=0:02:41.84    \nframe=  127 fps=0.8 q=31.2 size=    2816KiB time=00:00:02.08 bitrate=11073.1kbits/s speed=0.0128x elapsed=0:02:42.42    \nframe=  127 fps=0.8 q=31.2 size=    2816KiB time=00:00:02.08 bitrate=11073.1kbits/s speed=0.0128x elapsed=0:02:42.99    \nframe=  127 fps=0.8 q=31.2 size=    2816KiB time=00:00:02.08 bitrate=11073.1kbits/s speed=0.0127x elapsed=0:02:43.54    \nframe=  128 fps=0.8 q=31.6 size=    2816KiB time=00:00:02.10 bitrate=10985.2kbits/s speed=0.0128x elapsed=0:02:44.07    \nframe=  128 fps=0.8 q=31.6 size=    2816KiB time=00:00:02.10 bitrate=10985.2kbits/s speed=0.0128x elapsed=0:02:44.64    \nframe=  128 fps=0.8 q=31.6 size=    2816KiB time=00:00:02.10 bitrate=10985.2kbits/s speed=0.0127x elapsed=0:02:45.16    \nframe=  128 fps=0.8 q=31.6 size=    2816KiB time=00:00:02.10 bitrate=10985.2kbits/s speed=0.0127x elapsed=0:02:45.74    \nframe=  128 fps=0.8 q=31.6 size=    2816KiB time=00:00:02.10 bitrate=10985.2kbits/s speed=0.0126x elapsed=0:02:46.33    \nframe=  128 fps=0.8 q=31.6 size=    2816KiB time=00:00:02.10 bitrate=10985.2kbits/s speed=0.0126x elapsed=0:02:46.89    \nframe=  128 fps=0.8 q=31.6 size=    2816KiB time=00:00:02.10 bitrate=10985.2kbits/s speed=0.0125x elapsed=0:02:47.45    \nframe=  128 fps=0.8 q=31.6 size=    2816KiB time=00:00:02.10 bitrate=10985.2kbits/s speed=0.0125x elapsed=0:02:48.01    \nframe=  128 fps=0.8 q=31.6 size=    2816KiB time=00:00:02.10 bitrate=10985.2kbits/s speed=0.0125x elapsed=0:02:48.59    \nframe=  128 fps=0.8 q=31.6 size=    2816KiB time=00:00:02.10 bitrate=10985.2kbits/s speed=0.0124x elapsed=0:02:49.15    \nframe=  129 fps=0.8 q=31.4 size=    2816KiB time=00:00:02.11 bitrate=10898.7kbits/s speed=0.0125x elapsed=0:02:49.76    \nframe=  129 fps=0.8 q=31.4 size=    2816KiB time=00:00:02.11 bitrate=10898.7kbits/s speed=0.0124x elapsed=0:02:50.33    \nframe=  129 fps=0.8 q=31.4 size=    2816KiB time=00:00:02.11 bitrate=10898.7kbits/s speed=0.0124x elapsed=0:02:50.88    \nframe=  129 fps=0.8 q=31.4 size=    2816KiB time=00:00:02.11 bitrate=10898.7kbits/s speed=0.0123x elapsed=0:02:51.42    \nframe=  129 fps=0.8 q=31.4 size=    2816KiB time=00:00:02.11 bitrate=10898.7kbits/s speed=0.0123x elapsed=0:02:51.95    \nframe=  129 fps=0.7 q=31.4 size=    2816KiB time=00:00:02.11 bitrate=10898.7kbits/s speed=0.0123x elapsed=0:02:52.51    \nframe=  130 fps=0.8 q=24.6 size=    2816KiB time=00:00:02.11 bitrate=10898.7kbits/s speed=0.0122x elapsed=0:02:53.04    \nframe=  130 fps=0.7 q=24.6 size=    2816KiB time=00:00:02.13 bitrate=10813.6kbits/s speed=0.0123x elapsed=0:02:53.57    \nframe=  130 fps=0.7 q=24.6 size=    2816KiB time=00:00:02.13 bitrate=10813.6kbits/s speed=0.0123x elapsed=0:02:54.10    \nframe=  131 fps=0.8 q=29.5 size=    3072KiB time=00:00:02.15 bitrate=11705.2kbits/s speed=0.0123x elapsed=0:02:54.61    \nframe=  131 fps=0.7 q=29.5 size=    3072KiB time=00:00:02.15 bitrate=11705.2kbits/s speed=0.0123x elapsed=0:02:55.17    \nframe=  131 fps=0.7 q=29.5 size=    3072KiB time=00:00:02.15 bitrate=11705.2kbits/s speed=0.0122x elapsed=0:02:55.75    \nframe=  131 fps=0.7 q=29.5 size=    3072KiB time=00:00:02.15 bitrate=11705.2kbits/s speed=0.0122x elapsed=0:02:56.27    \nframe=  132 fps=0.7 q=31.2 size=    3072KiB time=00:00:02.16 bitrate=11615.2kbits/s speed=0.0123x elapsed=0:02:56.79    \nframe=  132 fps=0.7 q=31.2 size=    3072KiB time=00:00:02.16 bitrate=11615.2kbits/s speed=0.0122x elapsed=0:02:57.36    \nframe=  132 fps=0.7 q=31.2 size=    3072KiB time=00:00:02.16 bitrate=11615.2kbits/s speed=0.0122x elapsed=0:02:57.88    \nframe=  132 fps=0.7 q=31.2 size=    3072KiB time=00:00:02.16 bitrate=11615.2kbits/s speed=0.0121x elapsed=0:02:58.40    \nframe=  132 fps=0.7 q=31.2 size=    3072KiB time=00:00:02.16 bitrate=11615.2kbits/s speed=0.0121x elapsed=0:02:58.92    \nframe=  132 fps=0.7 q=31.2 size=    3072KiB time=00:00:02.16 bitrate=11615.2kbits/s speed=0.0121x elapsed=0:02:59.44    \nframe=  133 fps=0.7 q=31.8 size=    3072KiB time=00:00:02.18 bitrate=11526.5kbits/s speed=0.0121x elapsed=0:02:59.96    \nframe=  133 fps=0.7 q=31.8 size=    3072KiB time=00:00:02.18 bitrate=11526.5kbits/s speed=0.0121x elapsed=0:03:00.52    \nframe=  133 fps=0.7 q=31.8 size=    3072KiB time=00:00:02.18 bitrate=11526.5kbits/s speed=0.0121x elapsed=0:03:01.04    \nframe=  134 fps=0.7 q=24.4 size=    3072KiB time=00:00:02.20 bitrate=11439.2kbits/s speed=0.0121x elapsed=0:03:01.56    \nframe=  134 fps=0.7 q=24.4 size=    3072KiB time=00:00:02.20 bitrate=11439.2kbits/s speed=0.0121x elapsed=0:03:02.08    \nframe=  135 fps=0.7 q=28.6 size=    3072KiB time=00:00:02.21 bitrate=11353.2kbits/s speed=0.0121x elapsed=0:03:02.63    \nframe=  136 fps=0.7 q=31.4 size=    3072KiB time=00:00:02.23 bitrate=11268.4kbits/s speed=0.0122x elapsed=0:03:03.23    \nframe=  136 fps=0.7 q=31.4 size=    3072KiB time=00:00:02.23 bitrate=11268.4kbits/s speed=0.0122x elapsed=0:03:03.78    \nframe=  136 fps=0.7 q=31.4 size=    3072KiB time=00:00:02.23 bitrate=11268.4kbits/s speed=0.0121x elapsed=0:03:04.31    \nframe=  136 fps=0.7 q=31.4 size=    3072KiB time=00:00:02.23 bitrate=11268.4kbits/s speed=0.0121x elapsed=0:03:04.87    \nframe=  138 fps=0.7 q=30.4 size=    3072KiB time=00:00:02.26 bitrate=11102.7kbits/s speed=0.0122x elapsed=0:03:05.40    \nframe=  138 fps=0.7 q=30.4 size=    3072KiB time=00:00:02.26 bitrate=11102.7kbits/s speed=0.0122x elapsed=0:03:05.92    \nframe=  138 fps=0.7 q=30.4 size=    3072KiB time=00:00:02.26 bitrate=11102.7kbits/s speed=0.0122x elapsed=0:03:06.45    \nframe=  139 fps=0.7 q=24.7 size=    3072KiB time=00:00:02.28 bitrate=11021.7kbits/s speed=0.0122x elapsed=0:03:06.98    \nframe=  140 fps=0.7 q=30.5 size=    3072KiB time=00:00:02.30 bitrate=10941.8kbits/s speed=0.0123x elapsed=0:03:07.53    \nframe=  141 fps=0.7 q=30.4 size=    3072KiB time=00:00:02.31 bitrate=10863.1kbits/s speed=0.0123x elapsed=0:03:08.05    \nframe=  141 fps=0.7 q=30.4 size=    3072KiB time=00:00:02.31 bitrate=10863.1kbits/s speed=0.0123x elapsed=0:03:08.58    \nframe=  141 fps=0.7 q=30.4 size=    3072KiB time=00:00:02.31 bitrate=10863.1kbits/s speed=0.0123x elapsed=0:03:09.10    \nframe=  142 fps=0.7 q=30.4 size=    3072KiB time=00:00:02.33 bitrate=10785.5kbits/s speed=0.0123x elapsed=0:03:09.61    \nframe=  142 fps=0.7 q=30.4 size=    3072KiB time=00:00:02.33 bitrate=10785.5kbits/s speed=0.0123x elapsed=0:03:10.13    \nframe=  142 fps=0.7 q=30.4 size=    3072KiB time=00:00:02.33 bitrate=10785.5kbits/s speed=0.0122x elapsed=0:03:10.65    \nframe=  142 fps=0.7 q=30.4 size=    3072KiB time=00:00:02.33 bitrate=10785.5kbits/s speed=0.0122x elapsed=0:03:11.19    \nframe=  143 fps=0.7 q=30.4 size=    3072KiB time=00:00:02.35 bitrate=10709.0kbits/s speed=0.0123x elapsed=0:03:11.70    \nframe=  144 fps=0.7 q=24.3 size=    3072KiB time=00:00:02.36 bitrate=10633.6kbits/s speed=0.0123x elapsed=0:03:12.24    \nframe=  145 fps=0.8 q=24.9 size=    3328KiB time=00:00:02.38 bitrate=11439.2kbits/s speed=0.0124x elapsed=0:03:12.80    \nframe=  145 fps=0.8 q=24.9 size=    3328KiB time=00:00:02.38 bitrate=11439.2kbits/s speed=0.0123x elapsed=0:03:13.33    \nframe=  146 fps=0.8 q=31.3 size=    3328KiB time=00:00:02.40 bitrate=11359.7kbits/s speed=0.0124x elapsed=0:03:13.85    \nframe=  146 fps=0.8 q=31.3 size=    3328KiB time=00:00:02.40 bitrate=11359.7kbits/s speed=0.0123x elapsed=0:03:14.36    \nframe=  147 fps=0.8 q=30.1 size=    3328KiB time=00:00:02.41 bitrate=11281.4kbits/s speed=0.0124x elapsed=0:03:14.90    \nframe=  147 fps=0.8 q=30.1 size=    3328KiB time=00:00:02.41 bitrate=11281.4kbits/s speed=0.0124x elapsed=0:03:15.43    \nframe=  147 fps=0.8 q=30.1 size=    3328KiB time=00:00:02.41 bitrate=11281.4kbits/s speed=0.0123x elapsed=0:03:15.94    \nframe=  148 fps=0.8 q=31.6 size=    3328KiB time=00:00:02.43 bitrate=11204.1kbits/s speed=0.0124x elapsed=0:03:16.46    \nframe=  148 fps=0.8 q=31.6 size=    3328KiB time=00:00:02.43 bitrate=11204.1kbits/s speed=0.0124x elapsed=0:03:16.97    \nframe=  148 fps=0.7 q=31.6 size=    3328KiB time=00:00:02.43 bitrate=11204.1kbits/s speed=0.0123x elapsed=0:03:17.50    \nframe=  148 fps=0.7 q=31.6 size=    3328KiB time=00:00:02.43 bitrate=11204.1kbits/s speed=0.0123x elapsed=0:03:18.03    \nframe=  148 fps=0.7 q=31.6 size=    3328KiB time=00:00:02.43 bitrate=11204.1kbits/s speed=0.0123x elapsed=0:03:18.56    \nframe=  148 fps=0.7 q=31.6 size=    3328KiB time=00:00:02.43 bitrate=11204.1kbits/s speed=0.0122x elapsed=0:03:19.11    \nframe=  150 fps=0.8 q=26.2 size=    3328KiB time=00:00:02.45 bitrate=11127.9kbits/s speed=0.0123x elapsed=0:03:19.65    \nframe=  151 fps=0.8 q=31.4 size=    3328KiB time=00:00:02.48 bitrate=10978.5kbits/s speed=0.0124x elapsed=0:03:20.19    \nframe=  151 fps=0.8 q=31.4 size=    3328KiB time=00:00:02.48 bitrate=10978.5kbits/s speed=0.0124x elapsed=0:03:20.70    \nframe=  151 fps=0.8 q=31.4 size=    3328KiB time=00:00:02.48 bitrate=10978.5kbits/s speed=0.0123x elapsed=0:03:21.23    \nframe=  151 fps=0.7 q=31.4 size=    3328KiB time=00:00:02.48 bitrate=10978.5kbits/s speed=0.0123x elapsed=0:03:21.77    \nframe=  151 fps=0.7 q=31.4 size=    3328KiB time=00:00:02.48 bitrate=10978.5kbits/s speed=0.0123x elapsed=0:03:22.29    \nframe=  151 fps=0.7 q=31.4 size=    3328KiB time=00:00:02.48 bitrate=10978.5kbits/s speed=0.0122x elapsed=0:03:22.81    \nframe=  151 fps=0.7 q=31.4 size=    3328KiB time=00:00:02.48 bitrate=10978.5kbits/s speed=0.0122x elapsed=0:03:23.33    \nframe=  151 fps=0.7 q=31.4 size=    3328KiB time=00:00:02.48 bitrate=10978.5kbits/s speed=0.0122x elapsed=0:03:23.87    \nframe=  152 fps=0.7 q=31.6 size=    3328KiB time=00:00:02.50 bitrate=10905.3kbits/s speed=0.0122x elapsed=0:03:24.41    \nframe=  152 fps=0.7 q=31.6 size=    3328KiB time=00:00:02.50 bitrate=10905.3kbits/s speed=0.0122x elapsed=0:03:24.92    \nframe=  152 fps=0.7 q=31.6 size=    3328KiB time=00:00:02.50 bitrate=10905.3kbits/s speed=0.0122x elapsed=0:03:25.46    \nframe=  153 fps=0.7 q=31.3 size=    3328KiB time=00:00:02.51 bitrate=10833.1kbits/s speed=0.0122x elapsed=0:03:25.99    \nframe=  154 fps=0.7 q=24.4 size=    3328KiB time=00:00:02.53 bitrate=10761.8kbits/s speed=0.0123x elapsed=0:03:26.53    \nframe=  154 fps=0.7 q=24.4 size=    3328KiB time=00:00:02.53 bitrate=10761.8kbits/s speed=0.0122x elapsed=0:03:27.07    \nframe=  154 fps=0.7 q=24.4 size=    3328KiB time=00:00:02.53 bitrate=10761.8kbits/s speed=0.0122x elapsed=0:03:27.63    \nframe=  154 fps=0.7 q=24.4 size=    3328KiB time=00:00:02.53 bitrate=10761.8kbits/s speed=0.0122x elapsed=0:03:28.17    \nframe=  154 fps=0.7 q=24.4 size=    3328KiB time=00:00:02.53 bitrate=10761.8kbits/s speed=0.0121x elapsed=0:03:28.69    \nframe=  155 fps=0.7 q=29.1 size=    3584KiB time=00:00:02.55 bitrate=11513.9kbits/s speed=0.0122x elapsed=0:03:29.23    \nframe=  155 fps=0.7 q=29.1 size=    3584KiB time=00:00:02.55 bitrate=11513.9kbits/s speed=0.0122x elapsed=0:03:29.76    \nframe=  155 fps=0.7 q=29.1 size=    3584KiB time=00:00:02.55 bitrate=11513.9kbits/s speed=0.0121x elapsed=0:03:30.29    \nframe=  155 fps=0.7 q=29.1 size=    3584KiB time=00:00:02.55 bitrate=11513.9kbits/s speed=0.0121x elapsed=0:03:30.79    \nframe=  155 fps=0.7 q=29.1 size=    3584KiB time=00:00:02.55 bitrate=11513.9kbits/s speed=0.0121x elapsed=0:03:31.32    \nframe=  155 fps=0.7 q=29.1 size=    3584KiB time=00:00:02.55 bitrate=11513.9kbits/s speed=0.012x elapsed=0:03:31.86    \nframe=  155 fps=0.7 q=29.1 size=    3584KiB time=00:00:02.55 bitrate=11513.9kbits/s speed=0.012x elapsed=0:03:32.42    \nframe=  155 fps=0.7 q=29.1 size=    3584KiB time=00:00:02.55 bitrate=11513.9kbits/s speed=0.012x elapsed=0:03:32.97    \nframe=  155 fps=0.7 q=29.1 size=    3584KiB time=00:00:02.55 bitrate=11513.9kbits/s speed=0.0119x elapsed=0:03:33.51    \nframe=  155 fps=0.7 q=29.1 size=    3584KiB time=00:00:02.55 bitrate=11513.9kbits/s speed=0.0119x elapsed=0:03:34.05    \nframe=  156 fps=0.7 q=31.0 size=    3584KiB time=00:00:02.56 bitrate=11439.1kbits/s speed=0.012x elapsed=0:03:34.59    \nframe=  156 fps=0.7 q=31.0 size=    3584KiB time=00:00:02.56 bitrate=11439.1kbits/s speed=0.0119x elapsed=0:03:35.13    \nframe=  157 fps=0.7 q=31.6 size=    3584KiB time=00:00:02.58 bitrate=11365.3kbits/s speed=0.012x elapsed=0:03:35.70    \nframe=  157 fps=0.7 q=31.6 size=    3584KiB time=00:00:02.58 bitrate=11365.3kbits/s speed=0.0119x elapsed=0:03:36.22    \nframe=  157 fps=0.7 q=31.6 size=    3584KiB time=00:00:02.58 bitrate=11365.3kbits/s speed=0.0119x elapsed=0:03:36.75    \nframe=  159 fps=0.7 q=29.3 size=    3584KiB time=00:00:02.61 bitrate=11220.6kbits/s speed=0.012x elapsed=0:03:37.26    \nframe=  159 fps=0.7 q=29.3 size=    3584KiB time=00:00:02.61 bitrate=11220.6kbits/s speed=0.012x elapsed=0:03:37.81    \nframe=  159 fps=0.7 q=29.3 size=    3584KiB time=00:00:02.61 bitrate=11220.6kbits/s speed=0.012x elapsed=0:03:38.33    \nframe=  161 fps=0.7 q=31.4 size=    3584KiB time=00:00:02.65 bitrate=11079.4kbits/s speed=0.0121x elapsed=0:03:38.87    \nframe=  161 fps=0.7 q=31.4 size=    3584KiB time=00:00:02.65 bitrate=11079.4kbits/s speed=0.0121x elapsed=0:03:39.41    \nframe=  161 fps=0.7 q=31.4 size=    3584KiB time=00:00:02.65 bitrate=11079.4kbits/s speed=0.012x elapsed=0:03:39.94    \nframe=  161 fps=0.7 q=31.4 size=    3584KiB time=00:00:02.65 bitrate=11079.4kbits/s speed=0.012x elapsed=0:03:40.48    \nframe=  162 fps=0.7 q=24.5 size=    3584KiB time=00:00:02.66 bitrate=11010.2kbits/s speed=0.0121x elapsed=0:03:41.04    \nframe=  162 fps=0.7 q=24.5 size=    3584KiB time=00:00:02.66 bitrate=11010.2kbits/s speed=0.012x elapsed=0:03:41.58    \nframe=  164 fps=0.7 q=31.6 size=    3840KiB time=00:00:02.70 bitrate=11651.0kbits/s speed=0.0122x elapsed=0:03:42.11    \nframe=  164 fps=0.7 q=31.6 size=    3840KiB time=00:00:02.70 bitrate=11651.0kbits/s speed=0.0121x elapsed=0:03:42.64    \nframe=  164 fps=0.7 q=31.6 size=    3840KiB time=00:00:02.70 bitrate=11651.0kbits/s speed=0.0121x elapsed=0:03:43.15    \nframe=  164 fps=0.7 q=31.6 size=    3840KiB time=00:00:02.70 bitrate=11651.0kbits/s speed=0.0121x elapsed=0:03:43.70    \nframe=  164 fps=0.7 q=31.6 size=    3840KiB time=00:00:02.70 bitrate=11651.0kbits/s speed=0.012x elapsed=0:03:44.22    \nframe=  164 fps=0.7 q=31.6 size=    3840KiB time=00:00:02.70 bitrate=11651.0kbits/s speed=0.012x elapsed=0:03:44.76    \nframe=  164 fps=0.7 q=31.6 size=    3840KiB time=00:00:02.70 bitrate=11651.0kbits/s speed=0.012x elapsed=0:03:45.31    \nframe=  165 fps=0.7 q=31.2 size=    3840KiB time=00:00:02.71 bitrate=11579.5kbits/s speed=0.012x elapsed=0:03:45.86    \nframe=  165 fps=0.7 q=31.2 size=    3840KiB time=00:00:02.71 bitrate=11579.5kbits/s speed=0.012x elapsed=0:03:46.38    \nframe=  166 fps=0.7 q=31.3 size=    3840KiB time=00:00:02.73 bitrate=11508.9kbits/s speed=0.012x elapsed=0:03:46.89    \nframe=  166 fps=0.7 q=31.3 size=    3840KiB time=00:00:02.73 bitrate=11508.9kbits/s speed=0.012x elapsed=0:03:47.43    \nframe=  166 fps=0.7 q=31.3 size=    3840KiB time=00:00:02.73 bitrate=11508.9kbits/s speed=0.012x elapsed=0:03:47.96    \nframe=  167 fps=0.7 q=24.2 size=    3840KiB time=00:00:02.75 bitrate=11439.1kbits/s speed=0.012x elapsed=0:03:48.48    \nframe=  167 fps=0.7 q=24.2 size=    3840KiB time=00:00:02.75 bitrate=11439.1kbits/s speed=0.012x elapsed=0:03:49.02    \nframe=  168 fps=0.7 q=25.6 size=    3840KiB time=00:00:02.76 bitrate=11370.2kbits/s speed=0.0121x elapsed=0:03:49.54    \nframe=  168 fps=0.7 q=25.6 size=    3840KiB time=00:00:02.76 bitrate=11370.2kbits/s speed=0.012x elapsed=0:03:50.10    \nframe=  168 fps=0.7 q=25.6 size=    3840KiB time=00:00:02.76 bitrate=11370.2kbits/s speed=0.012x elapsed=0:03:50.64    \nframe=  168 fps=0.7 q=25.6 size=    3840KiB time=00:00:02.76 bitrate=11370.2kbits/s speed=0.012x elapsed=0:03:51.16    \nframe=  169 fps=0.7 q=31.3 size=    3840KiB time=00:00:02.78 bitrate=11302.1kbits/s speed=0.012x elapsed=0:03:51.68    \nframe=  170 fps=0.7 q=24.5 size=    3840KiB time=00:00:02.80 bitrate=11234.9kbits/s speed=0.0121x elapsed=0:03:52.20    \nframe=  172 fps=0.7 q=31.5 size=    3840KiB time=00:00:02.83 bitrate=11102.7kbits/s speed=0.0122x elapsed=0:03:52.72    \nframe=  172 fps=0.7 q=31.5 size=    3840KiB time=00:00:02.83 bitrate=11102.7kbits/s speed=0.0121x elapsed=0:03:53.24    \nframe=  172 fps=0.7 q=31.5 size=    3840KiB time=00:00:02.83 bitrate=11102.7kbits/s speed=0.0121x elapsed=0:03:53.80    \nframe=  173 fps=0.7 q=31.1 size=    3840KiB time=00:00:02.85 bitrate=11037.8kbits/s speed=0.0122x elapsed=0:03:54.32    \nframe=  174 fps=0.7 q=31.5 size=    3840KiB time=00:00:02.86 bitrate=10973.6kbits/s speed=0.0122x elapsed=0:03:54.87    \nframe=  174 fps=0.7 q=31.5 size=    3840KiB time=00:00:02.86 bitrate=10973.6kbits/s speed=0.0122x elapsed=0:03:55.38    \nframe=  174 fps=0.7 q=31.5 size=    3840KiB time=00:00:02.86 bitrate=10973.6kbits/s speed=0.0121x elapsed=0:03:55.99    \nframe=  174 fps=0.7 q=31.5 size=    3840KiB time=00:00:02.86 bitrate=10973.6kbits/s speed=0.0121x elapsed=0:03:56.56    \nframe=  174 fps=0.7 q=31.5 size=    3840KiB time=00:00:02.86 bitrate=10973.6kbits/s speed=0.0121x elapsed=0:03:57.08    \nframe=  174 fps=0.7 q=31.5 size=    3840KiB time=00:00:02.86 bitrate=10973.6kbits/s speed=0.0121x elapsed=0:03:57.60    \nframe=  175 fps=0.7 q=24.4 size=    3840KiB time=00:00:02.88 bitrate=10910.2kbits/s speed=0.0121x elapsed=0:03:58.11    \nframe=  176 fps=0.7 q=29.4 size=    4096KiB time=00:00:02.90 bitrate=11570.6kbits/s speed=0.0122x elapsed=0:03:58.63    \nframe=  176 fps=0.7 q=29.4 size=    4096KiB time=00:00:02.90 bitrate=11570.6kbits/s speed=0.0121x elapsed=0:03:59.18    \nframe=  177 fps=0.7 q=31.3 size=    4096KiB time=00:00:02.91 bitrate=11504.5kbits/s speed=0.0122x elapsed=0:03:59.70    \nframe=  177 fps=0.7 q=31.3 size=    4096KiB time=00:00:02.91 bitrate=11504.5kbits/s speed=0.0121x elapsed=0:04:00.22    \nframe=  177 fps=0.7 q=31.3 size=    4096KiB time=00:00:02.91 bitrate=11504.5kbits/s speed=0.0121x elapsed=0:04:00.82    \nframe=  177 fps=0.7 q=31.3 size=    4096KiB time=00:00:02.91 bitrate=11504.5kbits/s speed=0.0121x elapsed=0:04:01.35    \nframe=  177 fps=0.7 q=31.3 size=    4096KiB time=00:00:02.91 bitrate=11504.5kbits/s speed=0.0121x elapsed=0:04:01.87    \nframe=  177 fps=0.7 q=31.3 size=    4096KiB time=00:00:02.91 bitrate=11504.5kbits/s speed=0.012x elapsed=0:04:02.39    \nframe=  178 fps=0.7 q=24.4 size=    4096KiB time=00:00:02.93 bitrate=11439.1kbits/s speed=0.0121x elapsed=0:04:02.93    \nframe=  178 fps=0.7 q=24.4 size=    4096KiB time=00:00:02.93 bitrate=11439.1kbits/s speed=0.012x elapsed=0:04:03.45    \nframe=  179 fps=0.7 q=29.5 size=    4096KiB time=00:00:02.95 bitrate=11374.5kbits/s speed=0.0121x elapsed=0:04:03.99    \nframe=  179 fps=0.7 q=29.5 size=    4096KiB time=00:00:02.95 bitrate=11374.5kbits/s speed=0.0121x elapsed=0:04:04.53    \nframe=  179 fps=0.7 q=29.5 size=    4096KiB time=00:00:02.95 bitrate=11374.5kbits/s speed=0.012x elapsed=0:04:05.08    \nframe=  179 fps=0.7 q=29.5 size=    4096KiB time=00:00:02.95 bitrate=11374.5kbits/s speed=0.012x elapsed=0:04:05.58    \nframe=  179 fps=0.7 q=29.5 size=    4096KiB time=00:00:02.95 bitrate=11374.5kbits/s speed=0.012x elapsed=0:04:06.10    \nframe=  179 fps=0.7 q=29.5 size=    4096KiB time=00:00:02.95 bitrate=11374.5kbits/s speed=0.012x elapsed=0:04:06.62    \nframe=  179 fps=0.7 q=29.5 size=    4096KiB time=00:00:02.95 bitrate=11374.5kbits/s speed=0.0119x elapsed=0:04:07.14    \nframe=  179 fps=0.7 q=29.5 size=    4096KiB time=00:00:02.95 bitrate=11374.5kbits/s speed=0.0119x elapsed=0:04:07.66    \nframe=  180 fps=0.7 q=31.2 size=    4096KiB time=00:00:02.96 bitrate=11310.6kbits/s speed=0.012x elapsed=0:04:08.20    \nframe=  180 fps=0.7 q=31.2 size=    4096KiB time=00:00:02.96 bitrate=11310.6kbits/s speed=0.0119x elapsed=0:04:08.72    \nframe=  180 fps=0.7 q=31.2 size=    4096KiB time=00:00:02.96 bitrate=11310.6kbits/s speed=0.0119x elapsed=0:04:09.24    \nframe=  180 fps=0.7 q=31.2 size=    4096KiB time=00:00:02.96 bitrate=11310.6kbits/s speed=0.0119x elapsed=0:04:09.76    \nframe=  180 fps=0.7 q=31.2 size=    4096KiB time=00:00:02.96 bitrate=11310.6kbits/s speed=0.0119x elapsed=0:04:10.29    \nframe=  181 fps=0.7 q=31.4 size=    4096KiB time=00:00:02.98 bitrate=11247.4kbits/s speed=0.0119x elapsed=0:04:10.80    \nframe=  182 fps=0.7 q=24.5 size=    4096KiB time=00:00:03.00 bitrate=11184.9kbits/s speed=0.0119x elapsed=0:04:11.38    \nframe=  182 fps=0.7 q=24.5 size=    4096KiB time=00:00:03.00 bitrate=11184.9kbits/s speed=0.0119x elapsed=0:04:11.94    \nframe=  183 fps=0.7 q=25.1 size=    4352KiB time=00:00:03.01 bitrate=11818.3kbits/s speed=0.0119x elapsed=0:04:12.46    \nframe=  183 fps=0.7 q=25.1 size=    4352KiB time=00:00:03.01 bitrate=11818.3kbits/s speed=0.0119x elapsed=0:04:12.97    \nframe=  183 fps=0.7 q=25.1 size=    4352KiB time=00:00:03.01 bitrate=11818.3kbits/s speed=0.0119x elapsed=0:04:13.49    \nframe=  184 fps=0.7 q=31.2 size=    4352KiB time=00:00:03.03 bitrate=11753.4kbits/s speed=0.0119x elapsed=0:04:14.00    \nframe=  184 fps=0.7 q=31.2 size=    4352KiB time=00:00:03.03 bitrate=11753.4kbits/s speed=0.0119x elapsed=0:04:14.54    \nframe=  184 fps=0.7 q=31.2 size=    4352KiB time=00:00:03.03 bitrate=11753.4kbits/s speed=0.0119x elapsed=0:04:15.07    \nframe=  184 fps=0.7 q=31.2 size=    4352KiB time=00:00:03.03 bitrate=11753.4kbits/s speed=0.0119x elapsed=0:04:15.64    \nframe=  185 fps=0.7 q=31.3 size=    4352KiB time=00:00:03.05 bitrate=11689.2kbits/s speed=0.0119x elapsed=0:04:16.16    \nframe=  185 fps=0.7 q=31.3 size=    4352KiB time=00:00:03.05 bitrate=11689.2kbits/s speed=0.0119x elapsed=0:04:16.68    \nframe=  185 fps=0.7 q=31.3 size=    4352KiB time=00:00:03.05 bitrate=11689.2kbits/s speed=0.0119x elapsed=0:04:17.19    \nframe=  185 fps=0.7 q=31.3 size=    4352KiB time=00:00:03.05 bitrate=11689.2kbits/s speed=0.0118x elapsed=0:04:17.70    \nframe=  186 fps=0.7 q=31.4 size=    4352KiB time=00:00:03.06 bitrate=11625.6kbits/s speed=0.0119x elapsed=0:04:18.25    \nframe=  187 fps=0.7 q=24.4 size=    4352KiB time=00:00:03.08 bitrate=11562.8kbits/s speed=0.0119x elapsed=0:04:18.77    \nframe=  187 fps=0.7 q=24.4 size=    4352KiB time=00:00:03.08 bitrate=11562.8kbits/s speed=0.0119x elapsed=0:04:19.33    \nframe=  187 fps=0.7 q=24.4 size=    4352KiB time=00:00:03.08 bitrate=11562.8kbits/s speed=0.0119x elapsed=0:04:19.85    \nframe=  187 fps=0.7 q=24.4 size=    4352KiB time=00:00:03.08 bitrate=11562.8kbits/s speed=0.0118x elapsed=0:04:20.36    \nframe=  189 fps=0.7 q=31.2 size=    4352KiB time=00:00:03.11 bitrate=11439.1kbits/s speed=0.0119x elapsed=0:04:20.87    \nframe=  189 fps=0.7 q=31.2 size=    4352KiB time=00:00:03.11 bitrate=11439.1kbits/s speed=0.0119x elapsed=0:04:21.39    \nframe=  189 fps=0.7 q=31.2 size=    4352KiB time=00:00:03.11 bitrate=11439.1kbits/s speed=0.0119x elapsed=0:04:21.91    \nframe=  189 fps=0.7 q=31.2 size=    4352KiB time=00:00:03.11 bitrate=11439.1kbits/s speed=0.0119x elapsed=0:04:22.44    \nframe=  190 fps=0.7 q=31.0 size=    4352KiB time=00:00:03.13 bitrate=11378.3kbits/s speed=0.0119x elapsed=0:04:22.98    \nframe=  190 fps=0.7 q=31.0 size=    4352KiB time=00:00:03.13 bitrate=11378.3kbits/s speed=0.0119x elapsed=0:04:23.53    \nframe=  190 fps=0.7 q=31.0 size=    4352KiB time=00:00:03.13 bitrate=11378.3kbits/s speed=0.0119x elapsed=0:04:24.05    \nframe=  190 fps=0.7 q=31.0 size=    4352KiB time=00:00:03.13 bitrate=11378.3kbits/s speed=0.0118x elapsed=0:04:24.59    \nframe=  191 fps=0.7 q=32.1 size=    4352KiB time=00:00:03.15 bitrate=11318.1kbits/s speed=0.0119x elapsed=0:04:25.13    \nframe=  191 fps=0.7 q=32.1 size=    4352KiB time=00:00:03.15 bitrate=11318.1kbits/s speed=0.0119x elapsed=0:04:25.67    \nframe=  192 fps=0.7 q=24.4 size=    4352KiB time=00:00:03.16 bitrate=11258.5kbits/s speed=0.0119x elapsed=0:04:26.20    \nframe=  192 fps=0.7 q=24.4 size=    4352KiB time=00:00:03.16 bitrate=11258.5kbits/s speed=0.0119x elapsed=0:04:26.70    \nframe=  192 fps=0.7 q=24.4 size=    4352KiB time=00:00:03.16 bitrate=11258.5kbits/s speed=0.0119x elapsed=0:04:27.22    \nframe=  192 fps=0.7 q=24.4 size=    4352KiB time=00:00:03.16 bitrate=11258.5kbits/s speed=0.0118x elapsed=0:04:27.76    \nframe=  193 fps=0.7 q=25.6 size=    4608KiB time=00:00:03.18 bitrate=11858.4kbits/s speed=0.0119x elapsed=0:04:28.28    \nframe=  194 fps=0.7 q=31.1 size=    4608KiB time=00:00:03.20 bitrate=11796.6kbits/s speed=0.0119x elapsed=0:04:28.80    \nframe=  195 fps=0.7 q=31.1 size=    4608KiB time=00:00:03.21 bitrate=11735.5kbits/s speed=0.0119x elapsed=0:04:29.32    \nframe=  196 fps=0.7 q=32.2 size=    4608KiB time=00:00:03.23 bitrate=11675.0kbits/s speed=0.012x elapsed=0:04:29.83    \nframe=  196 fps=0.7 q=32.2 size=    4608KiB time=00:00:03.23 bitrate=11675.0kbits/s speed=0.012x elapsed=0:04:30.35    \nframe=  196 fps=0.7 q=32.2 size=    4608KiB time=00:00:03.23 bitrate=11675.0kbits/s speed=0.0119x elapsed=0:04:30.92    \nframe=  196 fps=0.7 q=32.2 size=    4608KiB time=00:00:03.23 bitrate=11675.0kbits/s speed=0.0119x elapsed=0:04:31.46    \nframe=  197 fps=0.7 q=24.4 size=    4608KiB time=00:00:03.25 bitrate=11615.1kbits/s speed=0.0119x elapsed=0:04:31.99    \nframe=  197 fps=0.7 q=24.4 size=    4608KiB time=00:00:03.25 bitrate=11615.1kbits/s speed=0.0119x elapsed=0:04:32.54    \nframe=  197 fps=0.7 q=24.4 size=    4608KiB time=00:00:03.25 bitrate=11615.1kbits/s speed=0.0119x elapsed=0:04:33.09    \nframe=  197 fps=0.7 q=24.4 size=    4608KiB time=00:00:03.25 bitrate=11615.1kbits/s speed=0.0119x elapsed=0:04:33.62    \nframe=  198 fps=0.7 q=30.9 size=    4608KiB time=00:00:03.26 bitrate=11555.8kbits/s speed=0.0119x elapsed=0:04:34.15    \nframe=  199 fps=0.7 q=31.2 size=    4608KiB time=00:00:03.28 bitrate=11497.2kbits/s speed=0.012x elapsed=0:04:34.66    \nframe=  200 fps=0.7 q=24.5 size=    4608KiB time=00:00:03.30 bitrate=11439.1kbits/s speed=0.012x elapsed=0:04:35.18    \nframe=  202 fps=0.7 q=31.3 size=    4608KiB time=00:00:03.33 bitrate=11324.7kbits/s speed=0.0121x elapsed=0:04:35.69    \nframe=  202 fps=0.7 q=31.3 size=    4608KiB time=00:00:03.33 bitrate=11324.7kbits/s speed=0.0121x elapsed=0:04:36.21    \nframe=  203 fps=0.7 q=32.1 size=    4608KiB time=00:00:03.35 bitrate=11268.4kbits/s speed=0.0121x elapsed=0:04:36.73    \nframe=  203 fps=0.7 q=32.1 size=    4608KiB time=00:00:03.35 bitrate=11268.4kbits/s speed=0.0121x elapsed=0:04:37.24    \nframe=  204 fps=0.7 q=32.1 size=    4608KiB time=00:00:03.36 bitrate=11212.6kbits/s speed=0.0121x elapsed=0:04:37.76    \nframe=  205 fps=0.7 q=24.4 size=    4608KiB time=00:00:03.38 bitrate=11157.4kbits/s speed=0.0122x elapsed=0:04:38.27    \nframe=  206 fps=0.7 q=29.6 size=    4864KiB time=00:00:03.38 bitrate=11777.2kbits/s speed=0.0121x elapsed=0:04:38.79    \nframe=  206 fps=0.7 q=29.6 size=    4864KiB time=00:00:03.40 bitrate=11719.5kbits/s speed=0.0122x elapsed=0:04:39.32    \nframe=  207 fps=0.7 q=31.3 size=    4864KiB time=00:00:03.41 bitrate=11662.3kbits/s speed=0.0122x elapsed=0:04:39.85    \nframe=  207 fps=0.7 q=31.3 size=    4864KiB time=00:00:03.41 bitrate=11662.3kbits/s speed=0.0122x elapsed=0:04:40.37    \nframe=  208 fps=0.7 q=31.5 size=    4864KiB time=00:00:03.43 bitrate=11605.7kbits/s speed=0.0122x elapsed=0:04:40.87    \nframe=  209 fps=0.7 q=24.5 size=    4864KiB time=00:00:03.45 bitrate=11549.6kbits/s speed=0.0123x elapsed=0:04:41.40    \nframe=  209 fps=0.7 q=24.5 size=    4864KiB time=00:00:03.45 bitrate=11549.6kbits/s speed=0.0122x elapsed=0:04:41.90    \nframe=  210 fps=0.7 q=25.6 size=    4864KiB time=00:00:03.46 bitrate=11494.1kbits/s speed=0.0123x elapsed=0:04:42.43    \nframe=  211 fps=0.7 q=31.1 size=    4864KiB time=00:00:03.48 bitrate=11439.1kbits/s speed=0.0123x elapsed=0:04:42.95    \nframe=  212 fps=0.7 q=24.4 size=    4864KiB time=00:00:03.50 bitrate=11384.6kbits/s speed=0.0123x elapsed=0:04:43.45    \nframe=  213 fps=0.8 q=30.5 size=    5120KiB time=00:00:03.51 bitrate=11927.0kbits/s speed=0.0124x elapsed=0:04:43.97    \nframe=  214 fps=0.8 q=31.2 size=    5120KiB time=00:00:03.53 bitrate=11870.8kbits/s speed=0.0124x elapsed=0:04:44.48    \nframe=  215 fps=0.8 q=31.3 size=    5120KiB time=00:00:03.55 bitrate=11815.0kbits/s speed=0.0125x elapsed=0:04:45.00    \nframe=  216 fps=0.8 q=31.4 size=    5120KiB time=00:00:03.56 bitrate=11759.8kbits/s speed=0.0125x elapsed=0:04:45.52    \nframe=  217 fps=0.8 q=24.6 size=    5120KiB time=00:00:03.58 bitrate=11705.1kbits/s speed=0.0125x elapsed=0:04:46.03    \nframe=  217 fps=0.8 q=24.6 size=    5120KiB time=00:00:03.58 bitrate=11705.1kbits/s speed=0.0125x elapsed=0:04:46.55    \nframe=  218 fps=0.8 q=26.6 size=    5120KiB time=00:00:03.60 bitrate=11650.9kbits/s speed=0.0125x elapsed=0:04:47.07    \nframe=  219 fps=0.8 q=31.3 size=    5120KiB time=00:00:03.61 bitrate=11597.3kbits/s speed=0.0126x elapsed=0:04:47.58    \nframe=  219 fps=0.8 q=31.3 size=    5120KiB time=00:00:03.61 bitrate=11597.3kbits/s speed=0.0126x elapsed=0:04:48.10    \nframe=  220 fps=0.8 q=24.4 size=    5120KiB time=00:00:03.63 bitrate=11544.1kbits/s speed=0.0126x elapsed=0:04:48.61    \nframe=  220 fps=0.8 q=24.4 size=    5120KiB time=00:00:03.63 bitrate=11544.1kbits/s speed=0.0126x elapsed=0:04:49.13    \nframe=  221 fps=0.8 q=28.9 size=    5120KiB time=00:00:03.65 bitrate=11491.3kbits/s speed=0.0126x elapsed=0:04:49.65    \nframe=  221 fps=0.8 q=28.9 size=    5120KiB time=00:00:03.65 bitrate=11491.3kbits/s speed=0.0126x elapsed=0:04:50.15    \nframe=  223 fps=0.8 q=24.3 size=    5120KiB time=00:00:03.68 bitrate=11387.3kbits/s speed=0.0127x elapsed=0:04:50.68    \nframe=  224 fps=0.8 q=25.4 size=    5376KiB time=00:00:03.70 bitrate=11902.8kbits/s speed=0.0127x elapsed=0:04:51.20    \nframe=  224 fps=0.8 q=25.4 size=    5376KiB time=00:00:03.70 bitrate=11902.8kbits/s speed=0.0127x elapsed=0:04:51.70    \nframe=  225 fps=0.8 q=31.5 size=    5376KiB time=00:00:03.71 bitrate=11849.5kbits/s speed=0.0127x elapsed=0:04:52.22    \nframe=  227 fps=0.8 q=30.6 size=    5376KiB time=00:00:03.75 bitrate=11744.1kbits/s speed=0.0128x elapsed=0:04:52.75    \nframe=  228 fps=0.8 q=31.6 size=    5376KiB time=00:00:03.76 bitrate=11692.2kbits/s speed=0.0128x elapsed=0:04:53.27    \nframe=  228 fps=0.8 q=31.6 size=    5376KiB time=00:00:03.76 bitrate=11692.2kbits/s speed=0.0128x elapsed=0:04:53.79    \nframe=  229 fps=0.8 q=32.0 size=    5376KiB time=00:00:03.78 bitrate=11640.7kbits/s speed=0.0129x elapsed=0:04:54.30    \nframe=  230 fps=0.8 q=32.2 size=    5376KiB time=00:00:03.80 bitrate=11589.6kbits/s speed=0.0129x elapsed=0:04:54.82    \nframe=  231 fps=0.8 q=25.3 size=    5376KiB time=00:00:03.81 bitrate=11539.0kbits/s speed=0.0129x elapsed=0:04:55.34    \nframe=  232 fps=0.8 q=29.2 size=    5376KiB time=00:00:03.83 bitrate=11488.8kbits/s speed=0.013x elapsed=0:04:55.84    \nframe=  232 fps=0.8 q=29.2 size=    5376KiB time=00:00:03.83 bitrate=11488.8kbits/s speed=0.0129x elapsed=0:04:56.37    \nframe=  233 fps=0.8 q=33.1 size=    5376KiB time=00:00:03.85 bitrate=11439.1kbits/s speed=0.013x elapsed=0:04:56.89    \nframe=  233 fps=0.8 q=33.1 size=    5376KiB time=00:00:03.85 bitrate=11439.1kbits/s speed=0.0129x elapsed=0:04:57.39    \nframe=  235 fps=0.8 q=32.6 size=    5376KiB time=00:00:03.88 bitrate=11340.9kbits/s speed=0.013x elapsed=0:04:57.91    \nframe=  235 fps=0.8 q=32.6 size=    5376KiB time=00:00:03.88 bitrate=11340.9kbits/s speed=0.013x elapsed=0:04:58.42    \nframe=  236 fps=0.8 q=33.2 size=    5376KiB time=00:00:03.90 bitrate=11292.4kbits/s speed=0.013x elapsed=0:04:58.94    \nframe=  237 fps=0.8 q=33.0 size=    5376KiB time=00:00:03.91 bitrate=11244.4kbits/s speed=0.0131x elapsed=0:04:59.46    \nframe=  238 fps=0.8 q=24.6 size=    5376KiB time=00:00:03.93 bitrate=11196.7kbits/s speed=0.0131x elapsed=0:04:59.97    \nframe=  240 fps=0.8 q=33.2 size=    5632KiB time=00:00:03.96 bitrate=11631.4kbits/s speed=0.0132x elapsed=0:05:00.49    \nframe=  241 fps=0.8 q=33.0 size=    5632KiB time=00:00:03.98 bitrate=11582.7kbits/s speed=0.0132x elapsed=0:05:01.01    \nframe=  241 fps=0.8 q=33.0 size=    5632KiB time=00:00:03.98 bitrate=11582.7kbits/s speed=0.0132x elapsed=0:05:01.52    \nframe=  242 fps=0.8 q=32.3 size=    5632KiB time=00:00:04.00 bitrate=11534.4kbits/s speed=0.0132x elapsed=0:05:02.03    \nframe=  243 fps=0.8 q=24.7 size=    5632KiB time=00:00:04.01 bitrate=11486.6kbits/s speed=0.0133x elapsed=0:05:02.55    \nframe=  243 fps=0.8 q=24.7 size=    5632KiB time=00:00:04.01 bitrate=11486.6kbits/s speed=0.0133x elapsed=0:05:03.07    \nframe=  243 fps=0.8 q=24.7 size=    5632KiB time=00:00:04.01 bitrate=11486.6kbits/s speed=0.0132x elapsed=0:05:03.59    \nframe=  244 fps=0.8 q=32.3 size=    5632KiB time=00:00:04.03 bitrate=11439.1kbits/s speed=0.0133x elapsed=0:05:04.12    \nframe=  244 fps=0.8 q=32.3 size=    5632KiB time=00:00:04.03 bitrate=11439.1kbits/s speed=0.0132x elapsed=0:05:04.62    \nframe=  246 fps=0.8 q=32.5 size=    5632KiB time=00:00:04.06 bitrate=11345.3kbits/s speed=0.0133x elapsed=0:05:05.15    \nframe=  246 fps=0.8 q=32.5 size=    5632KiB time=00:00:04.06 bitrate=11345.3kbits/s speed=0.0133x elapsed=0:05:05.67    \nframe=  246 fps=0.8 q=32.5 size=    5632KiB time=00:00:04.06 bitrate=11345.3kbits/s speed=0.0133x elapsed=0:05:06.17    \nframe=  246 fps=0.8 q=32.5 size=    5632KiB time=00:00:04.06 bitrate=11345.3kbits/s speed=0.0133x elapsed=0:05:06.70    \nframe=  246 fps=0.8 q=32.5 size=    5632KiB time=00:00:04.06 bitrate=11345.3kbits/s speed=0.0132x elapsed=0:05:07.22    \nframe=  246 fps=0.8 q=32.5 size=    5632KiB time=00:00:04.06 bitrate=11345.3kbits/s speed=0.0132x elapsed=0:05:07.74    \nframe=  246 fps=0.8 q=32.5 size=    5632KiB time=00:00:04.06 bitrate=11345.3kbits/s speed=0.0132x elapsed=0:05:08.26    \nframe=  246 fps=0.8 q=32.5 size=    5632KiB time=00:00:04.06 bitrate=11345.3kbits/s speed=0.0132x elapsed=0:05:08.77    \nframe=  247 fps=0.8 q=33.0 size=    5632KiB time=00:00:04.08 bitrate=11299.0kbits/s speed=0.0132x elapsed=0:05:09.29    \nframe=  248 fps=0.8 q=33.0 size=    5632KiB time=00:00:04.10 bitrate=11253.1kbits/s speed=0.0132x elapsed=0:05:09.81    \nframe=  248 fps=0.8 q=33.0 size=    5632KiB time=00:00:04.10 bitrate=11253.1kbits/s speed=0.0132x elapsed=0:05:10.33    \nframe=  248 fps=0.8 q=33.0 size=    5632KiB time=00:00:04.10 bitrate=11253.1kbits/s speed=0.0132x elapsed=0:05:10.87    \nframe=  248 fps=0.8 q=33.0 size=    5632KiB time=00:00:04.10 bitrate=11253.1kbits/s speed=0.0132x elapsed=0:05:11.39    \nframe=  249 fps=0.8 q=27.6 size=    5632KiB time=00:00:04.11 bitrate=11207.5kbits/s speed=0.0132x elapsed=0:05:11.91    \nframe=  249 fps=0.8 q=27.6 size=    5632KiB time=00:00:04.11 bitrate=11207.5kbits/s speed=0.0132x elapsed=0:05:12.43    \nframe=  250 fps=0.8 q=33.6 size=    5888KiB time=00:00:04.13 bitrate=11669.7kbits/s speed=0.0132x elapsed=0:05:12.95    \nframe=  250 fps=0.8 q=33.6 size=    5888KiB time=00:00:04.13 bitrate=11669.7kbits/s speed=0.0132x elapsed=0:05:13.47    \nframe=  250 fps=0.8 q=33.6 size=    5888KiB time=00:00:04.13 bitrate=11669.7kbits/s speed=0.0132x elapsed=0:05:14.00    \nframe=  250 fps=0.8 q=33.6 size=    5888KiB time=00:00:04.13 bitrate=11669.7kbits/s speed=0.0131x elapsed=0:05:14.52    \nframe=  251 fps=0.8 q=34.1 size=    5888KiB time=00:00:04.15 bitrate=11622.9kbits/s speed=0.0132x elapsed=0:05:15.04    \nframe=  252 fps=0.8 q=24.5 size=    5888KiB time=00:00:04.16 bitrate=11576.4kbits/s speed=0.0132x elapsed=0:05:15.55    \nframe=  253 fps=0.8 q=30.0 size=    6144KiB time=00:00:04.18 bitrate=12031.6kbits/s speed=0.0132x elapsed=0:05:16.07    \nframe=  253 fps=0.8 q=30.0 size=    6144KiB time=00:00:04.18 bitrate=12031.6kbits/s speed=0.0132x elapsed=0:05:16.61    \nframe=  253 fps=0.8 q=30.0 size=    6144KiB time=00:00:04.18 bitrate=12031.6kbits/s speed=0.0132x elapsed=0:05:17.11    \nframe=  253 fps=0.8 q=30.0 size=    6144KiB time=00:00:04.18 bitrate=12031.6kbits/s speed=0.0132x elapsed=0:05:17.64    \nframe=  254 fps=0.8 q=32.1 size=    6144KiB time=00:00:04.20 bitrate=11983.8kbits/s speed=0.0132x elapsed=0:05:18.17    \nframe=  254 fps=0.8 q=32.1 size=    6144KiB time=00:00:04.20 bitrate=11983.8kbits/s speed=0.0132x elapsed=0:05:18.69    \nframe=  255 fps=0.8 q=32.0 size=    6144KiB time=00:00:04.21 bitrate=11936.4kbits/s speed=0.0132x elapsed=0:05:19.20    \nframe=  255 fps=0.8 q=32.0 size=    6144KiB time=00:00:04.21 bitrate=11936.4kbits/s speed=0.0132x elapsed=0:05:19.72    \nframe=  256 fps=0.8 q=24.6 size=    6144KiB time=00:00:04.23 bitrate=11889.4kbits/s speed=0.0132x elapsed=0:05:20.25    \nframe=  257 fps=0.8 q=31.3 size=    6400KiB time=00:00:04.25 bitrate=12336.3kbits/s speed=0.0132x elapsed=0:05:20.75    \nframe=  257 fps=0.8 q=31.3 size=    6400KiB time=00:00:04.25 bitrate=12336.3kbits/s speed=0.0132x elapsed=0:05:21.27    \nframe=  258 fps=0.8 q=32.0 size=    6400KiB time=00:00:04.26 bitrate=12288.1kbits/s speed=0.0133x elapsed=0:05:21.78    \nframe=  259 fps=0.8 q=32.4 size=    6400KiB time=00:00:04.28 bitrate=12240.3kbits/s speed=0.0133x elapsed=0:05:22.30    \nframe=  259 fps=0.8 q=32.4 size=    6400KiB time=00:00:04.28 bitrate=12240.3kbits/s speed=0.0133x elapsed=0:05:22.82    \nframe=  260 fps=0.8 q=24.6 size=    6400KiB time=00:00:04.30 bitrate=12192.8kbits/s speed=0.0133x elapsed=0:05:23.35    \nframe=  260 fps=0.8 q=24.6 size=    6400KiB time=00:00:04.30 bitrate=12192.8kbits/s speed=0.0133x elapsed=0:05:23.90    \nframe=  262 fps=0.8 q=32.1 size=    6400KiB time=00:00:04.33 bitrate=12099.0kbits/s speed=0.0134x elapsed=0:05:24.41    \nframe=  262 fps=0.8 q=32.1 size=    6400KiB time=00:00:04.33 bitrate=12099.0kbits/s speed=0.0133x elapsed=0:05:24.92    \nframe=  262 fps=0.8 q=32.1 size=    6400KiB time=00:00:04.33 bitrate=12099.0kbits/s speed=0.0133x elapsed=0:05:25.45    \nframe=  263 fps=0.8 q=33.0 size=    6400KiB time=00:00:04.35 bitrate=12052.7kbits/s speed=0.0133x elapsed=0:05:25.97    \nframe=  263 fps=0.8 q=33.0 size=    6400KiB time=00:00:04.35 bitrate=12052.7kbits/s speed=0.0133x elapsed=0:05:26.51    \nframe=  264 fps=0.8 q=32.2 size=    6400KiB time=00:00:04.36 bitrate=12006.7kbits/s speed=0.0134x elapsed=0:05:27.04    \nframe=  264 fps=0.8 q=32.2 size=    6400KiB time=00:00:04.36 bitrate=12006.7kbits/s speed=0.0133x elapsed=0:05:27.56    \nframe=  264 fps=0.8 q=32.2 size=    6400KiB time=00:00:04.36 bitrate=12006.7kbits/s speed=0.0133x elapsed=0:05:28.08    \nframe=  265 fps=0.8 q=24.6 size=    6400KiB time=00:00:04.38 bitrate=11961.0kbits/s speed=0.0133x elapsed=0:05:28.60    \nframe=  265 fps=0.8 q=24.6 size=    6400KiB time=00:00:04.38 bitrate=11961.0kbits/s speed=0.0133x elapsed=0:05:29.12    \nframe=  265 fps=0.8 q=24.6 size=    6400KiB time=00:00:04.38 bitrate=11961.0kbits/s speed=0.0133x elapsed=0:05:29.63    \nframe=  265 fps=0.8 q=24.6 size=    6400KiB time=00:00:04.38 bitrate=11961.0kbits/s speed=0.0133x elapsed=0:05:30.14    \nframe=  265 fps=0.8 q=24.6 size=    6400KiB time=00:00:04.38 bitrate=11961.0kbits/s speed=0.0133x elapsed=0:05:30.69    \nframe=  266 fps=0.8 q=31.4 size=    6400KiB time=00:00:04.40 bitrate=11915.7kbits/s speed=0.0133x elapsed=0:05:31.20    \nframe=  266 fps=0.8 q=31.4 size=    6400KiB time=00:00:04.40 bitrate=11915.7kbits/s speed=0.0133x elapsed=0:05:31.73    \nframe=  266 fps=0.8 q=31.4 size=    6400KiB time=00:00:04.40 bitrate=11915.7kbits/s speed=0.0132x elapsed=0:05:32.23    \nframe=  266 fps=0.8 q=31.4 size=    6400KiB time=00:00:04.40 bitrate=11915.7kbits/s speed=0.0132x elapsed=0:05:32.75    \nframe=  267 fps=0.8 q=32.2 size=    6400KiB time=00:00:04.41 bitrate=11870.8kbits/s speed=0.0133x elapsed=0:05:33.29    \nframe=  268 fps=0.8 q=24.6 size=    6400KiB time=00:00:04.43 bitrate=11826.1kbits/s speed=0.0133x elapsed=0:05:33.83    \nframe=  268 fps=0.8 q=24.6 size=    6400KiB time=00:00:04.43 bitrate=11826.1kbits/s speed=0.0133x elapsed=0:05:34.35    \nframe=  268 fps=0.8 q=24.6 size=    6400KiB time=00:00:04.43 bitrate=11826.1kbits/s speed=0.0132x elapsed=0:05:34.86    \nframe=  269 fps=0.8 q=29.9 size=    6656KiB time=00:00:04.45 bitrate=12253.1kbits/s speed=0.0133x elapsed=0:05:35.38    \nframe=  270 fps=0.8 q=32.1 size=    6656KiB time=00:00:04.46 bitrate=12207.4kbits/s speed=0.0133x elapsed=0:05:35.90    \nframe=  271 fps=0.8 q=24.6 size=    6656KiB time=00:00:04.48 bitrate=12162.0kbits/s speed=0.0133x elapsed=0:05:36.40    \nframe=  271 fps=0.8 q=24.6 size=    6656KiB time=00:00:04.48 bitrate=12162.0kbits/s speed=0.0133x elapsed=0:05:36.93    \nframe=  271 fps=0.8 q=24.6 size=    6656KiB time=00:00:04.48 bitrate=12162.0kbits/s speed=0.0133x elapsed=0:05:37.45    \nframe=  271 fps=0.8 q=24.6 size=    6656KiB time=00:00:04.48 bitrate=12162.0kbits/s speed=0.0133x elapsed=0:05:37.95    \nframe=  271 fps=0.8 q=24.6 size=    6656KiB time=00:00:04.48 bitrate=12162.0kbits/s speed=0.0132x elapsed=0:05:38.48    \nframe=  271 fps=0.8 q=24.6 size=    6656KiB time=00:00:04.48 bitrate=12162.0kbits/s speed=0.0132x elapsed=0:05:39.00    \nframe=  271 fps=0.8 q=24.6 size=    6656KiB time=00:00:04.48 bitrate=12162.0kbits/s speed=0.0132x elapsed=0:05:39.50    \nframe=  273 fps=0.8 q=32.1 size=    6656KiB time=00:00:04.51 bitrate=12072.2kbits/s speed=0.0133x elapsed=0:05:40.02    \nframe=  274 fps=0.8 q=24.7 size=    6656KiB time=00:00:04.53 bitrate=12027.9kbits/s speed=0.0133x elapsed=0:05:40.55    \nframe=  275 fps=0.8 q=31.0 size=    6656KiB time=00:00:04.55 bitrate=11983.8kbits/s speed=0.0133x elapsed=0:05:41.07    \nframe=  275 fps=0.8 q=31.0 size=    6656KiB time=00:00:04.55 bitrate=11983.8kbits/s speed=0.0133x elapsed=0:05:41.59    \nframe=  275 fps=0.8 q=31.0 size=    6656KiB time=00:00:04.55 bitrate=11983.8kbits/s speed=0.0133x elapsed=0:05:42.11    \nframe=  276 fps=0.8 q=32.1 size=    6656KiB time=00:00:04.56 bitrate=11940.1kbits/s speed=0.0133x elapsed=0:05:42.63    \nframe=  278 fps=0.8 q=30.3 size=    6656KiB time=00:00:04.60 bitrate=11853.5kbits/s speed=0.0134x elapsed=0:05:43.14    \nframe=  278 fps=0.8 q=30.3 size=    6656KiB time=00:00:04.60 bitrate=11853.5kbits/s speed=0.0134x elapsed=0:05:43.66    \nframe=  278 fps=0.8 q=30.3 size=    6656KiB time=00:00:04.60 bitrate=11853.5kbits/s speed=0.0134x elapsed=0:05:44.18    \nframe=  279 fps=0.8 q=32.2 size=    6656KiB time=00:00:04.61 bitrate=11810.8kbits/s speed=0.0134x elapsed=0:05:44.71    \nframe=  279 fps=0.8 q=32.2 size=    6656KiB time=00:00:04.61 bitrate=11810.8kbits/s speed=0.0134x elapsed=0:05:45.24    \nframe=  280 fps=0.8 q=24.7 size=    6656KiB time=00:00:04.63 bitrate=11768.3kbits/s speed=0.0134x elapsed=0:05:45.76    \nframe=  281 fps=0.8 q=31.3 size=    6912KiB time=00:00:04.65 bitrate=12177.1kbits/s speed=0.0134x elapsed=0:05:46.27    \nframe=  282 fps=0.8 q=32.3 size=    6912KiB time=00:00:04.66 bitrate=12133.6kbits/s speed=0.0135x elapsed=0:05:46.78    \nframe=  282 fps=0.8 q=32.3 size=    6912KiB time=00:00:04.66 bitrate=12133.6kbits/s speed=0.0134x elapsed=0:05:47.31    \nframe=  283 fps=0.8 q=32.1 size=    6912KiB time=00:00:04.68 bitrate=12090.4kbits/s speed=0.0135x elapsed=0:05:47.81    \nframe=  283 fps=0.8 q=32.1 size=    6912KiB time=00:00:04.68 bitrate=12090.4kbits/s speed=0.0134x elapsed=0:05:48.34    \nframe=  284 fps=0.8 q=32.4 size=    6912KiB time=00:00:04.70 bitrate=12047.5kbits/s speed=0.0135x elapsed=0:05:48.86    \nframe=  285 fps=0.8 q=24.8 size=    6912KiB time=00:00:04.71 bitrate=12005.0kbits/s speed=0.0135x elapsed=0:05:49.39    \nframe=  286 fps=0.8 q=26.0 size=    6912KiB time=00:00:04.73 bitrate=11962.7kbits/s speed=0.0135x elapsed=0:05:49.91    \nframe=  287 fps=0.8 q=32.2 size=    6912KiB time=00:00:04.75 bitrate=11920.7kbits/s speed=0.0136x elapsed=0:05:50.43    \nframe=  287 fps=0.8 q=32.2 size=    6912KiB time=00:00:04.75 bitrate=11920.7kbits/s speed=0.0135x elapsed=0:05:50.95    \nframe=  287 fps=0.8 q=32.2 size=    6912KiB time=00:00:04.75 bitrate=11920.7kbits/s speed=0.0135x elapsed=0:05:51.47    \nframe=  287 fps=0.8 q=32.2 size=    6912KiB time=00:00:04.75 bitrate=11920.7kbits/s speed=0.0135x elapsed=0:05:51.99    \nframe=  288 fps=0.8 q=32.2 size=    6912KiB time=00:00:04.76 bitrate=11879.0kbits/s speed=0.0135x elapsed=0:05:52.50    \nframe=  289 fps=0.8 q=32.1 size=    6912KiB time=00:00:04.78 bitrate=11837.7kbits/s speed=0.0135x elapsed=0:05:53.05    \nframe=  289 fps=0.8 q=32.1 size=    6912KiB time=00:00:04.78 bitrate=11837.7kbits/s speed=0.0135x elapsed=0:05:53.57    \nframe=  292 fps=0.8 q=32.0 size=    6912KiB time=00:00:04.83 bitrate=11715.2kbits/s speed=0.0137x elapsed=0:05:54.08    \nframe=  292 fps=0.8 q=32.0 size=    6912KiB time=00:00:04.83 bitrate=11715.2kbits/s speed=0.0136x elapsed=0:05:54.60    \nframe=  292 fps=0.8 q=32.0 size=    6912KiB time=00:00:04.83 bitrate=11715.2kbits/s speed=0.0136x elapsed=0:05:55.12    \nframe=  293 fps=0.8 q=32.1 size=    6912KiB time=00:00:04.85 bitrate=11674.9kbits/s speed=0.0136x elapsed=0:05:55.65    \nframe=  293 fps=0.8 q=32.1 size=    6912KiB time=00:00:04.85 bitrate=11674.9kbits/s speed=0.0136x elapsed=0:05:56.17    \nframe=  294 fps=0.8 q=32.1 size=    6912KiB time=00:00:04.86 bitrate=11635.0kbits/s speed=0.0136x elapsed=0:05:56.67    \nframe=  295 fps=0.8 q=27.0 size=    6912KiB time=00:00:04.88 bitrate=11595.2kbits/s speed=0.0137x elapsed=0:05:57.19    \nframe=  296 fps=0.8 q=30.1 size=    7168KiB time=00:00:04.90 bitrate=11983.8kbits/s speed=0.0137x elapsed=0:05:57.71    \nframe=  297 fps=0.8 q=32.1 size=    7168KiB time=00:00:04.91 bitrate=11943.2kbits/s speed=0.0137x elapsed=0:05:58.22    \n[mp4 @ 000002f6ebac7c40] Starting second pass: moving the moov atom to the beginning of the file\n[out#0/mp4 @ 000002f6eba3ac80] video:7188KiB audio:0KiB subtitle:0KiB other streams:0KiB global headers:2KiB muxing overhead: 0.096689%\nframe=  300 fps=0.8 q=32.3 Lsize=    7195KiB time=00:00:04.96 bitrate=11867.6kbits/s speed=0.0139x elapsed=0:05:58.43    \nx265 [info]: frame I:      2, Avg QP:29.00  kb/s: 122578.80\nx265 [info]: frame P:     71, Avg QP:25.11  kb/s: 40939.53\nx265 [info]: frame B:    227, Avg QP:30.91  kb/s: 1677.02 \nx265 [info]: Weighted P-Frames: Y:5.6% UV:2.8%\n\nencoded 300 frames in 358.02s (0.84 fps), 11775.16 kb/s, Avg QP:29.52\n",
  "seconds": 359.24002289772034,
  "probe_out": {}
}